<?xml version="1.0" standalone="no"?>
<!DOCTYPE svg PUBLIC "-//W3C//DTD SVG 20010904//EN"
 "http://www.w3.org/TR/2001/REC-SVG-20010904/DTD/svg10.dtd">
<svg version="1.0" xmlns="http://www.w3.org/2000/svg"
 width="1080.000000pt" height="1060.000000pt" viewBox="0 0 1080.000000 1060.000000"
 preserveAspectRatio="xMidYMid meet">
<metadata>
Created by potrace 1.16, written by Peter Selinger 2001-2019
</metadata>
<g transform="translate(0.000000,1060.000000) scale(0.100000,-0.100000)"
fill="#000000" stroke="none">
<path d="M0 9615 c0 -869 2 -985 15 -985 8 0 15 5 15 10 0 6 13 10 29 10 16 0
45 7 64 15 23 9 37 11 39 4 2 -6 41 -11 91 -12 102 -2 110 4 101 73 -4 25 -8
48 -10 51 -7 12 -115 21 -127 10 -8 -6 -43 -8 -86 -5 -60 4 -77 9 -99 30 -15
14 -21 24 -13 22 8 -2 23 13 34 34 12 22 25 34 33 31 8 -3 25 2 39 11 28 19
82 21 122 5 15 -7 35 -13 44 -14 38 -4 110 -29 120 -41 6 -8 20 -14 31 -14 11
0 16 -5 13 -10 -4 -6 1 -22 10 -36 25 -38 -4 -104 -47 -104 -23 0 -23 -12 1
-34 28 -25 33 -63 9 -69 -11 -3 -22 -15 -25 -26 -6 -24 -14 -26 -32 -8 -10 10
-12 9 -9 -3 2 -11 -10 -16 -47 -21 -27 -4 -68 -12 -90 -19 -22 -6 -47 -13 -55
-14 -8 -2 -22 -6 -31 -10 -14 -6 -83 5 -122 20 -16 6 -17 -15 -17 -255 0 -167
4 -261 10 -261 6 0 10 4 10 10 0 5 13 7 30 4 22 -5 31 -2 36 10 9 23 234 24
234 1 0 -8 -4 -15 -10 -15 -42 0 59 -120 118 -139 45 -15 171 -10 242 10 25 6
72 11 105 9 33 -2 80 -3 105 -3 25 1 101 1 170 2 69 0 152 -4 185 -10 33 -5
103 -14 155 -19 52 -5 112 -11 133 -14 49 -6 140 8 145 22 2 6 10 8 18 5 17
-6 19 8 2 25 -9 9 -8 15 7 26 18 13 18 15 1 61 -21 52 -14 67 35 78 21 5 35
-3 82 -48 49 -47 63 -55 95 -55 20 0 46 7 56 15 49 37 115 1 153 -82 13 -29
29 -53 34 -53 5 0 9 -9 9 -21 0 -16 4 -19 18 -14 42 19 80 17 101 -4 12 -12
27 -21 35 -21 8 0 38 -11 68 -25 61 -29 104 -32 136 -9 22 15 22 17 6 41 -11
18 -15 39 -11 70 6 59 16 68 59 53 48 -17 112 -1 116 28 3 19 10 22 55 23 67
2 81 -1 86 -14 2 -6 15 -22 28 -35 23 -23 23 -25 6 -38 -22 -17 -36 -17 -51
-2 -9 9 -12 9 -12 0 0 -7 -7 -12 -15 -12 -19 0 -33 -28 -31 -65 1 -25 8 -34
45 -52 67 -34 129 -10 191 75 16 23 37 42 44 42 8 0 22 10 30 21 22 32 93 69
132 69 19 0 61 -14 94 -31 74 -38 133 -48 158 -26 12 11 31 15 62 12 44 -5 68
5 104 40 33 34 11 94 -37 95 -9 0 -34 -9 -54 -20 -59 -32 -105 -22 -123 26 -9
23 -23 28 -62 25 -20 -2 -32 46 -23 90 5 21 11 29 22 25 8 -3 17 -6 19 -6 2 0
4 -13 4 -30 0 -25 4 -30 25 -30 18 0 25 5 25 19 0 25 29 31 157 37 97 4 163
18 150 30 -3 4 5 18 19 32 26 29 30 42 13 42 -5 0 -32 22 -60 49 -51 50 -78
61 -154 61 -49 0 -65 14 -55 50 6 23 10 25 63 22 35 -1 57 2 57 8 0 6 8 10 17
8 10 -2 22 7 29 20 6 13 17 29 23 35 6 6 11 17 11 25 0 8 8 20 17 27 22 16 63
-1 63 -26 0 -46 88 -25 130 31 65 85 75 93 115 92 58 -2 75 -11 75 -38 0 -13
-4 -24 -9 -24 -15 0 -20 -64 -6 -80 7 -8 14 -21 16 -28 3 -10 11 -8 31 7 28
23 48 27 48 11 0 -5 9 -10 20 -10 10 0 23 -8 29 -17 7 -13 23 -17 65 -18 56 0
56 0 50 -27 -4 -21 -2 -28 10 -28 9 0 16 -5 16 -10 0 -6 17 0 38 13 20 13 60
34 87 47 28 13 56 30 63 37 7 7 21 18 32 26 10 7 38 46 61 87 24 41 58 95 77
119 25 34 33 53 31 80 -1 20 -1 49 0 65 1 28 1 29 21 11 11 -10 20 -25 20 -34
0 -9 16 -27 35 -40 23 -16 35 -31 35 -47 0 -28 16 -32 23 -6 4 10 5 8 5 -8 -2
-52 2 -70 17 -70 8 0 29 -14 47 -30 l33 -30 -30 -26 c-64 -55 -73 -62 -80 -56
-3 3 -8 -4 -12 -16 -5 -21 -23 -31 -23 -13 0 5 -12 11 -27 14 -52 12 -57 21
-60 103 -3 91 -12 106 -44 70 -33 -38 -40 -153 -10 -180 26 -23 27 -43 4 -49
-14 -4 -13 -5 4 -6 27 -1 29 -4 38 -69 l7 -53 -46 31 c-36 25 -53 30 -75 25
-58 -13 -71 -59 -41 -150 15 -45 30 -45 30 1 0 20 4 33 10 29 5 -3 7 -12 4
-19 -7 -17 41 -27 56 -12 15 15 82 15 97 0 7 -7 13 -20 13 -28 0 -9 5 -16 10
-16 6 0 10 9 10 20 0 11 5 20 10 20 6 0 10 -7 10 -15 0 -8 5 -15 11 -15 15 0
69 -52 69 -67 0 -7 5 -13 10 -13 6 0 10 5 10 11 0 8 5 8 15 -1 12 -10 16 -9
21 5 8 21 -59 86 -108 105 -59 24 -68 37 -64 99 4 70 13 90 42 102 23 8 71 4
104 -9 50 -19 100 -24 128 -14 15 6 46 14 70 17 34 6 42 4 42 -9 0 -9 5 -16
10 -16 6 0 10 5 10 11 0 6 9 8 20 4 11 -4 20 -2 20 4 0 6 18 28 40 50 22 22
40 45 40 52 0 7 6 20 14 28 20 23 59 98 86 164 26 65 48 73 62 20 5 -20 21
-39 41 -52 18 -11 41 -29 51 -40 10 -11 84 -52 164 -91 81 -39 155 -75 165
-81 10 -5 55 -29 101 -53 157 -82 255 -169 281 -247 9 -27 21 -49 26 -49 5 0
9 -6 9 -12 0 -7 18 -51 41 -98 46 -96 48 -100 81 -190 27 -72 38 -77 105 -49
31 12 34 12 61 -14 32 -31 46 -33 94 -13 19 8 58 15 85 14 63 0 89 8 98 30 9
25 -22 42 -80 42 -55 0 -77 15 -89 63 -10 41 2 70 38 93 33 21 90 23 102 3 11
-18 33 -8 52 25 33 56 102 61 156 11 38 -35 60 -45 101 -45 25 0 35 -4 32 -12
-2 -7 -1 -20 4 -29 12 -23 -51 -103 -91 -117 -22 -8 -30 -17 -30 -35 0 -24 27
-57 47 -57 32 0 62 -84 43 -119 -14 -27 -85 -46 -116 -32 -15 6 -25 7 -29 1
-4 -6 -14 -10 -23 -10 -21 0 -62 -126 -62 -188 0 -33 -6 -46 -35 -73 -42 -40
-65 -94 -65 -155 0 -33 -6 -51 -22 -67 -29 -28 -137 -65 -146 -51 -13 20 -73
34 -93 23 -24 -12 -30 1 -54 121 -9 47 -21 89 -25 94 -5 4 -41 -8 -80 -28 -40
-20 -79 -36 -86 -36 -8 0 -14 -4 -14 -10 0 -5 -5 -10 -10 -10 -6 0 -30 -9 -52
-20 -52 -25 -54 -25 -61 1 -3 12 -10 18 -17 14 -6 -4 -8 -15 -5 -25 4 -11 -1
-20 -12 -24 -10 -4 -19 -2 -21 3 -2 6 -10 11 -19 11 -8 0 -21 7 -30 16 -20 20
-2 67 22 58 25 -10 17 12 -10 26 -14 7 -25 19 -25 25 0 15 62 15 73 0 5 -6 6
-2 3 8 -3 10 -6 25 -6 33 0 8 -7 14 -15 14 -14 0 -38 33 -30 42 5 5 -20 55
-54 108 -16 26 -21 44 -16 70 3 19 8 71 12 115 3 44 8 82 12 85 3 3 7 18 9 34
3 25 1 28 -11 17 -12 -9 -16 -9 -21 1 -3 7 -5 -2 -3 -19 3 -23 -1 -33 -11 -33
-10 0 -12 -8 -7 -30 7 -32 1 -35 -43 -23 -17 4 -22 11 -19 24 3 10 -2 20 -10
23 -11 5 -12 10 -2 27 9 17 8 25 -5 37 -15 15 -16 14 -16 -9 0 -14 -3 -29 -7
-32 -11 -12 -15 -243 -8 -434 6 -149 10 -181 21 -176 17 6 19 -23 3 -33 -8 -5
-8 -8 0 -14 8 -5 9 -14 2 -33 -12 -32 -31 -36 -31 -6 0 19 -2 20 -16 8 -15
-12 -16 -9 -10 31 13 87 13 85 -13 82 -15 -2 -21 0 -16 7 3 7 1 10 -7 9 -8 -2
-15 11 -18 37 -3 25 -8 35 -13 28 -5 -7 -6 -17 -2 -22 3 -6 -1 -13 -9 -18 -7
-4 -16 -17 -19 -28 -4 -15 -5 -14 -6 7 0 16 -6 27 -13 25 -6 -1 -14 6 -16 16
-3 16 0 18 19 12 21 -7 22 -6 7 9 -9 9 -25 16 -36 16 -12 0 -22 9 -26 23 -6
21 -7 21 -17 4 -6 -10 -9 -21 -6 -23 3 -3 -1 -17 -8 -31 -7 -14 -11 -33 -7
-41 6 -16 10 -10 26 42 5 14 10 16 17 9 7 -7 8 -17 3 -25 -5 -7 -9 -24 -9 -38
0 -14 -4 -30 -8 -36 -3 -6 -8 -37 -9 -68 -1 -31 -5 -56 -8 -56 -4 0 -7 -21 -8
-47 l-1 -48 15 50 c8 28 17 66 18 85 5 52 25 120 37 120 6 0 8 -4 4 -9 -3 -5
3 -12 14 -16 16 -5 18 -12 14 -45 -3 -22 -3 -40 1 -40 10 0 32 54 35 87 0 7 7
10 15 7 8 -3 12 -13 9 -22 -4 -13 -3 -14 5 -3 5 7 12 9 15 4 8 -13 -3 -53 -15
-53 -6 0 -8 -7 -4 -15 3 -8 1 -15 -5 -15 -7 0 -9 10 -4 28 4 17 3 24 -3 17 -6
-5 -12 -19 -14 -30 -3 -16 -10 -19 -46 -17 -27 2 -42 -1 -42 -8 0 -7 7 -10 15
-7 8 4 16 3 19 -1 2 -4 20 -7 40 -6 36 2 36 2 37 -40 l1 -41 16 35 c14 31 16
33 20 13 4 -27 21 -31 23 -5 1 9 4 4 8 -13 3 -16 10 -29 14 -27 4 1 17 2 28 2
18 0 19 3 9 15 -7 8 -9 23 -5 32 12 31 34 -12 30 -60 -2 -32 -8 -43 -26 -49
-15 -6 -25 -5 -31 4 -6 10 -8 9 -8 -3 0 -11 -17 -20 -55 -28 -30 -7 -57 -17
-60 -22 -4 -5 -15 -9 -26 -9 -10 0 -19 -4 -19 -10 0 -5 -11 -12 -25 -16 -26
-6 -28 -17 -15 -69 7 -26 8 -27 10 -7 1 12 3 27 4 32 0 6 4 10 9 10 4 0 12 0
18 0 5 0 7 -4 4 -10 -4 -6 6 -10 22 -10 21 0 25 3 13 10 -12 8 -13 11 -2 22
11 11 16 9 28 -6 8 -11 14 -15 14 -8 0 7 8 5 20 -5 11 -10 20 -23 20 -29 0 -8
20 -11 60 -9 47 2 60 -1 60 -12 0 -8 4 -12 10 -8 5 3 8 11 6 18 -1 7 -1 9 1 5
3 -5 11 -8 18 -8 7 0 16 -7 19 -16 6 -16 -6 -108 -24 -191 -7 -31 -6 -52 5
-84 8 -23 15 -47 15 -54 0 -12 -64 -81 -123 -134 -25 -21 -39 -70 -17 -56 6 3
10 13 10 21 0 8 5 12 10 9 6 -4 7 -11 4 -17 -4 -6 -1 -9 7 -6 8 3 13 12 11 22
-3 18 13 22 23 5 4 -6 14 -7 24 -4 9 4 22 8 29 9 7 1 21 14 31 29 l17 27 -2
-43 c-2 -55 -1 -53 -20 -72 -12 -12 -13 -19 -5 -29 8 -10 9 -16 1 -21 -16 -10
-13 -48 4 -42 8 3 17 1 19 -6 6 -15 47 77 47 104 0 22 37 174 50 204 4 11 18
47 31 80 13 33 29 66 36 73 39 40 64 84 69 124 7 50 -7 88 -33 88 -18 0 -50
33 -76 78 -21 36 -36 182 -19 182 6 0 9 7 6 15 -5 12 3 15 43 15 37 0 60 -7
97 -30 26 -17 45 -34 42 -38 -3 -5 6 -26 20 -46 14 -21 24 -46 21 -56 -3 -12
2 -20 12 -23 11 -3 28 -33 45 -82 31 -88 40 -231 17 -273 -14 -26 -16 -37 -26
-130 -6 -64 -40 -167 -61 -189 -7 -7 -10 -35 -8 -67 2 -42 0 -56 -10 -56 -18
0 -26 -22 -26 -74 0 -30 -6 -48 -19 -60 -11 -10 -22 -29 -25 -42 -4 -13 -15
-33 -26 -44 -13 -13 -20 -33 -20 -56 0 -21 -4 -33 -10 -29 -6 3 -10 1 -10 -4
0 -6 6 -11 13 -11 7 -1 5 -6 -5 -14 -10 -7 -18 -25 -18 -39 0 -13 -7 -27 -15
-31 -8 -3 -15 -15 -15 -28 0 -34 -49 -185 -65 -202 -8 -8 -15 -20 -15 -26 0
-15 -47 -107 -59 -114 -5 -3 -15 -30 -21 -58 -15 -62 -32 -98 -62 -132 -13
-14 -41 -50 -63 -80 -34 -48 -44 -56 -72 -56 -17 0 -35 5 -39 11 -4 7 -21 9
-45 5 -36 -6 -39 -5 -39 18 0 14 -4 27 -9 31 -13 7 -59 -13 -102 -47 -20 -15
-44 -28 -52 -28 -9 0 -28 -10 -44 -23 -32 -27 -61 -39 -73 -32 -17 11 5 44 55
81 76 58 103 84 108 103 4 15 -1 18 -30 15 -19 -1 -45 -10 -59 -19 -13 -9 -29
-13 -34 -10 -6 4 -12 0 -15 -7 -5 -13 -55 -24 -55 -13 0 3 34 40 75 83 41 42
70 78 65 80 -5 2 -17 -4 -26 -12 -8 -9 -22 -16 -30 -16 -27 0 -78 -32 -138
-86 -33 -30 -67 -54 -77 -54 -10 0 -25 15 -36 35 -76 144 -179 356 -211 439
-22 54 -46 106 -54 116 -9 9 -20 30 -26 46 -6 16 -11 22 -11 13 -1 -9 -8 -30
-17 -47 -8 -18 -12 -36 -9 -42 4 -6 2 -16 -3 -23 -16 -21 -20 -77 -5 -77 11 0
16 21 16 65 0 6 6 16 13 23 22 20 18 -26 -16 -190 -17 -80 -32 -165 -34 -190
-7 -75 -18 -118 -28 -112 -5 3 -8 25 -7 50 2 24 0 47 -4 50 -4 4 -7 -16 -7
-44 0 -29 -4 -52 -10 -52 -5 0 -10 6 -10 13 0 8 -4 7 -10 -3 -7 -12 -28 -15
-93 -13 -123 2 -156 22 -209 127 -22 44 -51 95 -64 112 -13 17 -24 39 -24 48
0 9 -4 15 -9 11 -22 -13 16 -128 68 -210 46 -72 2 -80 -71 -14 -44 40 -68 49
-68 26 0 -14 20 -41 108 -141 28 -34 51 -65 49 -71 -5 -13 -70 -10 -75 4 -2 6
-9 11 -15 11 -13 0 -127 118 -127 131 0 12 -27 11 -35 0 -6 -10 19 -37 72 -81
40 -33 79 -98 66 -111 -17 -17 -40 0 -104 78 -57 70 -63 75 -75 58 -29 -39
-61 30 -96 210 -40 210 -45 231 -56 252 -7 12 -12 52 -12 90 0 68 -10 144 -48
363 -11 63 -23 135 -26 160 -3 25 -11 70 -17 100 -6 30 -13 134 -16 230 -4
153 -2 187 17 275 12 55 26 125 30 155 6 37 16 61 31 72 23 19 59 24 75 9 5
-5 18 -11 28 -13 14 -2 20 -13 23 -39 3 -30 0 -38 -17 -42 -11 -3 -22 -13 -26
-24 -11 -36 -22 -48 -43 -46 -25 3 -27 -12 -7 -64 8 -21 17 -55 20 -77 3 -26
16 -50 39 -72 53 -53 91 -138 93 -209 3 -97 15 -236 25 -294 5 -30 9 -98 9
-150 0 -85 9 -156 40 -311 23 -116 25 -120 73 -120 32 0 34 9 7 43 -26 33 -26
86 1 132 18 30 20 40 9 64 -17 41 -20 169 -5 219 8 24 32 74 54 112 45 75 50
106 27 186 -78 275 -78 274 -73 368 3 50 10 111 15 136 6 27 7 49 1 56 -5 6
-6 14 -2 17 3 4 -1 15 -9 24 -8 10 -27 47 -41 83 -14 36 -33 83 -43 105 -10
22 -17 44 -16 48 4 16 -19 47 -35 47 -16 0 -16 1 0 12 13 10 14 20 8 48 -5 19
-10 28 -11 20 -1 -8 -6 -1 -9 15 -4 17 -3 35 1 42 5 6 5 14 -2 18 -6 3 -8 11
-5 16 4 5 1 9 -4 9 -6 0 -11 7 -11 16 0 10 -6 14 -15 10 -19 -7 -19 8 0 27 8
8 11 18 8 21 -4 4 -6 26 -6 49 1 23 -1 34 -4 25 -2 -10 -9 -18 -14 -18 -5 0
-9 -7 -9 -16 0 -8 -5 -12 -11 -9 -6 4 -8 13 -5 21 3 8 1 14 -4 14 -6 0 -10 -4
-10 -9 0 -5 -3 -16 -6 -25 -4 -10 -1 -16 9 -16 19 0 27 -20 16 -40 -15 -29
-22 -55 -26 -90 -2 -19 -7 -42 -10 -50 -3 -8 -5 -23 -4 -32 1 -10 -3 -18 -8
-18 -6 0 -11 -9 -11 -20 0 -13 6 -19 18 -18 35 3 50 -2 54 -19 6 -23 -23 -68
-42 -67 -8 1 -20 2 -27 3 -6 1 -9 10 -5 24 5 21 4 21 -14 5 -18 -15 -74 -17
-113 -3 -10 4 -12 -1 -7 -22 18 -80 18 -93 3 -117 -14 -20 -23 -24 -53 -20
-19 2 -96 5 -169 7 -91 1 -138 6 -147 15 -17 17 -49 15 -99 -8 -24 -11 -65
-20 -90 -20 -65 0 -109 -10 -109 -25 0 -17 -29 -23 -60 -14 -14 4 -44 7 -67 8
-23 1 -45 6 -48 11 -3 6 -48 10 -100 10 -77 0 -100 -4 -128 -20 -32 -19 -42
-20 -114 -11 -43 6 -152 13 -242 16 -90 3 -169 9 -174 12 -14 9 -101 4 -105
-6 -4 -12 -112 6 -171 28 -62 23 -158 22 -196 -3 -13 -9 -34 -16 -45 -16 -11
0 -30 -6 -41 -12 -17 -10 -23 -10 -26 0 -3 6 -14 12 -25 12 -11 0 -33 9 -48
20 -51 36 -82 36 -125 -1 -40 -36 -47 -38 -113 -46 -27 -3 -48 0 -58 8 -9 7
-44 23 -78 34 -66 23 -86 47 -93 112 -2 18 -12 48 -24 67 -11 18 -19 38 -18
42 5 22 -15 63 -37 74 -13 8 -24 17 -24 22 0 4 -9 8 -20 8 -11 0 -20 4 -20 9
0 14 -32 18 -57 7 -24 -9 -32 -36 -12 -36 8 0 8 -4 0 -14 -9 -11 -7 -15 7 -18
11 -3 21 -17 24 -31 3 -17 1 -24 -5 -20 -6 4 -8 0 -5 -9 4 -8 3 -21 -2 -28
-10 -16 -76 -40 -111 -40 -14 0 -40 -7 -57 -16 -43 -21 -100 -10 -114 22 -6
13 -15 24 -20 24 -4 0 -8 13 -8 28 0 15 -4 32 -10 38 -11 11 30 64 50 64 10 0
10 3 0 15 -29 35 -110 -5 -110 -55 0 -12 -4 -19 -8 -16 -13 8 -52 -50 -52 -78
0 -29 -24 -56 -50 -56 -19 0 -131 55 -140 69 -3 4 -15 13 -27 20 -19 9 -30 8
-63 -9 -21 -11 -44 -28 -49 -38 -13 -25 -68 -18 -76 9 -4 10 -13 19 -21 19 -8
0 -19 11 -24 25 -10 26 -82 65 -121 65 -17 0 -19 -8 -19 -95 0 -91 1 -95 23
-101 23 -5 23 -8 14 -50 -6 -25 -16 -44 -24 -44 -11 0 -13 -331 -13 -1940 0
-1905 0 -1939 19 -1950 21 -11 54 -3 45 11 -3 5 6 13 19 18 14 6 27 16 29 23
4 11 8 11 21 0 12 -10 21 -11 36 -3 26 14 31 14 31 -3 0 -21 52 -27 73 -9 9 9
17 22 17 29 0 7 9 18 21 24 26 15 48 -11 41 -47 -4 -23 -3 -24 17 -13 17 8 20
15 12 24 -6 7 -8 16 -4 19 11 12 23 7 23 -9 0 -12 7 -14 33 -9 17 4 29 4 25 0
-11 -12 11 -35 33 -35 11 0 19 -4 19 -10 0 -5 -7 -10 -15 -10 -8 0 -15 -7 -15
-15 0 -10 -10 -15 -26 -15 -15 0 -33 -8 -41 -17 -10 -14 -13 -14 -11 -3 3 15
-5 16 -54 5 -27 -5 -40 9 -16 17 7 3 9 11 3 24 -7 17 -8 18 -12 1 -3 -9 -8
-15 -13 -12 -16 10 -20 -13 -5 -25 19 -15 20 -50 2 -50 -8 0 -24 11 -37 25
-12 13 -27 22 -31 19 -5 -3 -15 -2 -21 3 -25 15 -73 13 -85 -4 -10 -13 -18
-14 -35 -6 -26 11 -98 5 -98 -8 0 -5 17 -9 38 -10 56 -1 85 -8 102 -24 13 -13
10 -15 -25 -16 -22 -1 -57 0 -77 1 l-38 2 0 -80 c0 -91 4 -95 75 -85 24 3 52
2 62 -2 34 -14 54 -12 77 10 14 13 44 25 73 29 26 4 68 17 92 28 40 19 44 20
53 5 10 -20 53 -23 64 -5 4 6 2 14 -4 16 -18 6 -14 19 8 25 11 3 20 14 20 25
0 16 9 20 46 25 31 3 54 13 74 32 31 30 29 31 45 -20 2 -8 11 -12 20 -9 10 4
14 17 11 43 -2 20 -1 26 1 14 3 -19 8 -21 22 -13 21 11 31 4 31 -22 0 -10 5
-18 11 -18 5 0 8 -4 4 -9 -3 -5 -1 -12 5 -16 6 -3 13 1 16 9 3 9 12 16 19 16
7 0 16 7 19 16 4 10 14 14 26 11 11 -3 22 -1 25 3 10 16 117 41 163 38 l47 -3
0 -40 c0 -37 -3 -42 -40 -60 -33 -16 -36 -20 -19 -23 15 -2 24 -12 27 -30 3
-15 4 -29 2 -33 -8 -12 -174 -49 -224 -49 -12 0 -35 7 -52 16 -29 14 -31 14
-49 -8 -18 -23 -18 -23 16 -54 39 -36 43 -60 13 -69 -15 -5 -19 -14 -17 -37 2
-26 9 -33 42 -44 21 -8 50 -25 63 -39 14 -13 41 -27 60 -31 33 -6 35 -8 30
-40 -7 -44 7 -51 46 -21 40 30 58 36 78 26 19 -10 36 0 40 25 2 11 10 21 18
24 9 3 12 0 9 -9 -4 -11 2 -14 28 -11 31 4 60 22 35 22 -6 0 -11 7 -11 16 0
14 3 14 16 3 13 -10 19 -8 40 14 27 30 79 47 142 47 31 0 42 4 42 16 0 11 -6
14 -22 9 -26 -8 -24 -8 -58 -6 -24 2 -24 2 8 19 l32 18 -21 23 c-19 20 -22 21
-38 7 -22 -20 -71 -21 -71 -2 0 8 7 16 15 20 8 3 15 12 15 21 0 13 -9 15 -47
10 -57 -7 -84 5 -64 29 11 13 11 16 -2 16 -9 0 -27 -4 -40 -9 -18 -7 -30 -6
-43 5 -18 14 -18 15 4 9 21 -6 23 -4 17 14 -6 19 -3 20 24 15 18 -4 47 0 71
10 54 21 65 20 92 -8 23 -24 62 -39 130 -50 31 -6 37 -4 43 14 4 12 1 27 -5
35 -18 22 10 29 43 12 19 -10 51 -13 105 -10 98 5 99 5 107 45 9 45 32 78 53
78 10 0 23 5 29 11 14 14 6 39 -13 39 -16 0 -37 37 -31 54 3 6 -1 19 -8 29
-11 16 -13 16 -27 -1 -9 -9 -20 -26 -26 -38 -17 -32 -69 -30 -90 4 -22 34 -54
31 -82 -7 -33 -47 -117 -48 -88 -1 9 14 6 23 -15 46 -31 33 -38 103 -12 124 8
7 15 23 15 36 0 30 35 49 130 68 40 9 77 20 84 25 6 5 32 16 58 25 45 15 48
14 108 -11 l61 -27 87 43 c95 47 188 65 217 41 20 -17 19 -25 -9 -54 -14 -16
-34 -26 -50 -26 -17 0 -25 -4 -21 -11 4 -6 9 -8 12 -5 3 3 22 -2 43 -10 37
-15 40 -14 60 6 18 18 28 20 65 15 39 -6 45 -5 61 20 12 19 24 25 42 23 33 -4
37 -19 11 -46 -15 -17 -18 -26 -10 -35 16 -20 -24 -38 -91 -42 -43 -2 -61 1
-65 11 -6 16 -39 19 -47 5 -6 -10 -68 -7 -85 4 -18 10 -48 -13 -54 -41 -3 -16
2 -38 12 -55 16 -26 17 -26 46 -11 17 8 36 23 43 33 10 15 17 16 37 7 13 -6
26 -17 30 -26 7 -19 -13 -42 -31 -35 -8 3 -26 -3 -41 -12 -25 -17 -26 -18 -8
-31 22 -16 71 -18 80 -4 3 6 -1 10 -9 10 -9 0 -16 5 -16 10 0 13 0 13 48 -10
57 -28 69 -25 63 13 -1 9 35 9 67 1 19 -5 22 -11 17 -33 -4 -19 2 -38 20 -65
14 -20 25 -45 25 -54 1 -16 2 -16 14 1 7 9 18 17 24 17 12 0 32 53 32 86 0 31
27 32 32 2 2 -14 12 -25 28 -28 36 -10 50 -1 50 30 0 15 9 39 21 54 18 23 18
27 5 31 -9 3 -23 7 -32 10 -9 3 -14 11 -12 18 5 14 48 23 48 10 0 -5 19 -17
42 -28 39 -17 43 -17 67 -2 14 9 40 24 58 33 17 9 36 27 42 40 8 19 18 24 46
24 20 0 45 5 56 11 28 15 49 5 42 -20 -3 -12 -10 -21 -17 -21 -6 0 -18 -5 -26
-10 -13 -9 -13 -11 0 -20 8 -5 26 -10 40 -10 14 0 39 -9 55 -20 17 -11 23 -20
15 -20 -9 0 -33 -12 -54 -26 -34 -23 -38 -30 -34 -61 5 -45 -22 -65 -87 -65
-54 0 -67 8 -42 26 22 17 22 33 -3 46 -25 13 -26 40 -2 47 9 3 30 20 45 39 25
29 27 35 12 40 -10 4 -26 -3 -44 -20 -15 -14 -38 -26 -50 -26 -13 0 -33 -10
-45 -22 -12 -13 -36 -34 -54 -47 -18 -13 -32 -31 -32 -41 0 -9 -12 -21 -27
-28 -26 -10 -23 -11 24 -8 29 2 57 -2 63 -8 18 -18 11 -35 -18 -42 -50 -10
-72 -23 -72 -43 0 -21 46 -35 86 -25 18 5 24 2 24 -10 0 -9 -4 -16 -8 -16 -4
0 -36 -27 -70 -60 -48 -47 -64 -57 -68 -45 -8 21 -92 21 -100 0 -4 -8 -15 -15
-25 -15 -12 0 -19 -7 -19 -20 0 -12 -10 -25 -25 -32 -20 -9 -28 -8 -44 6 -14
12 -21 14 -26 6 -14 -22 20 -38 84 -42 72 -3 85 8 52 41 -19 19 -19 21 -4 21
10 0 31 7 47 15 38 20 39 20 31 -23 -8 -47 11 -68 52 -57 61 15 93 17 93 6 0
-6 -11 -13 -25 -17 -14 -3 -25 -9 -25 -13 0 -4 -11 -14 -25 -21 -29 -15 -32
-36 -9 -61 9 -10 14 -24 12 -31 -3 -8 -24 6 -55 40 -58 59 -88 67 -103 25 -21
-58 -50 -84 -50 -44 0 15 -6 21 -21 21 -16 0 -20 5 -17 27 3 24 -2 30 -29 38
-17 6 -40 19 -52 29 -12 11 -27 15 -40 11 -21 -6 -42 19 -34 42 2 6 -6 17 -17
23 -17 9 -19 15 -10 23 9 9 17 5 37 -17 21 -25 28 -28 44 -18 10 7 26 12 34
12 17 0 20 17 4 22 -5 2 -7 11 -3 21 4 11 10 14 18 8 6 -5 27 -12 46 -15 28
-5 31 -5 18 4 -23 14 -25 70 -3 70 8 0 15 4 15 9 0 16 -72 -1 -125 -29 -81
-44 -99 -45 -134 -9 -36 36 -37 39 -12 39 26 0 37 18 45 73 7 46 6 47 -18 47
-16 0 -26 -6 -26 -15 0 -19 -39 -20 -46 0 -6 16 32 85 47 85 5 0 9 7 9 15 0
22 -53 19 -73 -3 -10 -10 -15 -21 -12 -24 3 -3 1 -17 -4 -32 -8 -20 -17 -26
-40 -26 -25 0 -31 -5 -37 -33 -4 -17 -8 -38 -8 -46 -1 -7 -17 -21 -36 -30 -21
-10 -33 -23 -31 -32 13 -47 12 -69 -3 -75 -29 -11 -61 4 -73 36 -11 30 -52 44
-54 18 0 -7 -2 -33 -4 -57 l-3 -43 44 6 c35 4 44 3 44 -10 0 -8 8 -17 18 -20
9 -3 27 -11 39 -16 31 -15 56 -3 48 22 -5 15 -2 20 11 20 14 0 15 3 6 12 -7 7
-12 25 -12 40 0 15 -4 28 -10 28 -22 0 -8 17 26 32 35 16 35 16 46 -8 6 -13
20 -24 30 -24 28 0 78 -28 78 -44 0 -8 7 -16 15 -20 8 -3 15 -11 15 -19 0 -23
25 -67 38 -67 6 0 12 -8 13 -17 0 -10 2 -44 4 -76 l3 -59 -29 28 c-22 21 -31
25 -42 16 -20 -17 -45 6 -49 43 -3 30 -34 48 -47 27 -28 -45 -134 -60 -144
-21 -6 23 -30 25 -47 4 -10 -13 -10 -19 5 -35 23 -26 10 -47 -16 -24 -18 16
-19 16 -19 -4 0 -32 -40 -132 -53 -133 -7 -1 -23 -2 -36 -3 -13 -1 -26 -7 -29
-15 -5 -16 46 -9 127 19 57 19 76 18 85 -6 4 -11 -4 -14 -35 -14 -47 0 -139
-28 -144 -44 -1 -6 -17 -56 -33 -111 -17 -55 -32 -111 -34 -124 -2 -15 -15
-31 -33 -41 -26 -14 -30 -22 -27 -51 2 -19 1 -31 -3 -27 -4 4 -8 18 -9 30 -1
22 -4 23 -76 21 -108 -3 -140 -11 -150 -39 -5 -13 -14 -24 -20 -24 -25 0 -5
34 60 99 38 39 70 79 70 90 0 10 7 24 15 31 20 16 19 46 -1 54 -9 3 -50 6 -92
6 l-77 1 40 14 c22 8 58 15 80 15 34 0 138 28 111 30 -6 0 -2 6 9 13 10 8 15
19 11 25 -5 8 3 12 23 12 34 0 40 14 14 29 -10 6 -15 11 -10 11 4 0 -2 9 -14
21 -11 11 -21 19 -22 17 -22 -42 -23 -43 -98 -41 -74 2 -104 -9 -95 -33 8 -20
-11 -27 -22 -9 -6 12 -16 14 -35 10 -29 -8 -35 -20 -14 -28 6 -3 3 -6 -8 -6
-12 -1 -26 -6 -32 -12 -13 -13 -75 -8 -80 7 -2 5 10 17 27 25 30 14 30 14 -37
17 -37 1 -73 8 -80 14 -17 14 -19 11 -28 -40 l-7 -43 39 6 c21 4 45 9 54 11
22 6 32 -21 14 -36 -8 -7 -13 -15 -10 -19 2 -4 -10 -5 -27 -3 -18 3 -33 0 -38
-8 -7 -11 -14 -10 -36 4 -18 13 -38 17 -65 13 -44 -6 -83 16 -76 43 4 14 -1
16 -27 11 -27 -6 -31 -10 -28 -37 2 -20 -4 -36 -17 -49 -12 -10 -21 -28 -21
-41 0 -14 -9 -28 -22 -35 -13 -6 -30 -20 -38 -31 -9 -10 -25 -21 -35 -22 -16
-2 -20 -12 -21 -42 -1 -65 -4 -75 -14 -69 -6 3 -18 -2 -27 -11 -13 -13 -14
-19 -5 -22 21 -7 13 -22 -12 -22 -13 0 -26 -7 -30 -15 -3 -8 -11 -15 -18 -15
-7 0 -26 -7 -42 -15 -18 -10 -33 -12 -39 -6 -5 5 0 12 14 16 33 9 89 38 89 46
0 4 -7 20 -15 35 -8 16 -15 36 -15 45 0 9 -9 23 -19 30 -11 8 -21 23 -23 33
-2 15 5 21 29 27 20 4 34 2 36 -5 3 -7 9 -6 21 4 16 13 20 12 30 -2 11 -15 14
-15 35 1 17 13 20 20 11 26 -6 4 -17 2 -22 -3 -8 -8 -18 -5 -36 8 -26 21 -88
19 -107 -4 -17 -20 -57 -17 -62 5 -6 21 -20 24 -43 9 -13 -8 -12 -10 3 -10 11
0 17 -8 17 -24 0 -18 -7 -25 -32 -31 -32 -6 -32 -7 -10 -17 12 -6 22 -14 22
-19 0 -9 -82 1 -96 13 -18 14 5 53 43 74 32 17 42 37 24 48 -10 7 -20 66 -14
83 3 7 24 21 47 33 37 17 42 24 38 45 -3 16 -11 25 -23 25 -11 0 -19 -4 -19
-10 0 -5 5 -10 11 -10 5 0 7 -4 4 -10 -12 -19 -36 -10 -47 18 -6 15 -11 30
-10 35 3 11 -36 8 -57 -5 -15 -9 -25 -9 -46 0 -14 7 -24 8 -21 4 7 -11 -52
-72 -69 -72 -8 0 -22 -11 -33 -25 -28 -36 -50 -32 -58 11 -4 22 -11 33 -19 30
-7 -2 -24 2 -38 9 -29 15 -37 11 -37 -19 0 -12 -14 -31 -33 -43 -27 -20 -29
-23 -11 -23 12 0 27 7 34 15 19 22 44 18 56 -10 10 -21 9 -25 -7 -30 -10 -4
-19 -13 -19 -22 0 -15 12 -15 52 2 12 5 20 2 24 -9 9 -25 -14 -47 -43 -40 -16
4 -30 0 -43 -11 -17 -16 -20 -16 -26 -2 -3 8 -1 24 5 35 8 15 7 23 -5 32 -27
23 -42 -15 -42 -112 0 -69 3 -88 14 -88 18 0 17 -18 -1 -50 -22 -38 -19 -70 6
-70 15 0 19 -4 15 -16 -3 -9 -6 -22 -6 -30 0 -8 -7 -14 -15 -14 -12 0 -15 -13
-15 -55 0 -49 2 -55 21 -55 11 0 40 -9 65 -20 41 -19 43 -22 29 -37 -14 -13
-14 -17 -2 -32 9 -9 14 -32 12 -56 -4 -58 -7 -67 -43 -112 -18 -23 -32 -47
-32 -54 0 -7 -11 -25 -26 -40 -22 -23 -25 -33 -22 -90 l3 -63 62 64 c35 35 63
69 63 76 0 7 4 15 9 18 20 13 39 -8 45 -49 4 -25 13 -46 22 -49 19 -7 74 45
74 69 0 25 -19 55 -34 55 -28 0 -3 36 52 75 30 22 65 49 76 60 17 17 36 20
111 22 86 2 190 22 228 44 13 7 23 7 32 -1 10 -8 26 -4 67 16 55 29 70 42 62
56 -3 4 -1 8 5 8 5 0 13 9 16 21 6 18 12 20 48 14 23 -4 47 -12 52 -18 6 -7
24 -11 41 -9 19 2 36 -3 44 -12 15 -19 46 -21 56 -5 4 7 -1 16 -10 21 -24 14
-19 29 8 22 17 -4 27 0 35 13 9 15 10 13 11 -14 0 -20 -5 -33 -12 -33 -9 0 -8
-3 2 -10 26 -16 47 14 33 49 -9 25 -7 32 16 57 14 15 35 42 46 60 11 17 32 46
48 63 l27 33 26 -31 c14 -18 34 -41 44 -54 16 -20 20 -20 45 -7 21 11 26 20
23 42 -3 15 -1 25 4 22 5 -3 24 0 44 6 27 9 38 9 49 0 12 -10 18 -10 30 0 24
20 30 -12 10 -54 -16 -32 -42 -53 -53 -41 -3 3 0 5 6 5 7 0 12 4 12 9 0 4 -12
6 -26 3 -14 -2 -29 0 -33 7 -11 16 -74 -47 -98 -98 -3 -8 2 -21 13 -30 30 -25
24 -54 -12 -65 -24 -7 -31 -15 -31 -35 0 -14 -3 -34 -7 -43 -6 -13 -3 -19 10
-24 11 -3 28 -10 39 -16 18 -10 18 -9 7 5 -19 23 -10 32 52 51 68 22 109 18
114 -9 3 -11 9 -26 15 -33 10 -13 15 -13 187 4 30 3 83 7 117 10 35 3 73 11
86 17 31 16 99 93 96 109 -6 45 17 78 55 78 12 0 40 13 62 29 21 16 64 42 94
58 49 26 78 46 192 133 16 12 49 23 86 26 46 5 61 11 65 24 3 10 28 33 56 52
28 18 53 41 57 51 6 20 26 22 56 6 28 -15 58 12 39 35 -11 13 -10 18 3 31 8 9
13 22 10 30 -8 21 27 61 50 57 10 -2 22 1 26 8 10 16 40 0 74 -41 29 -34 28
-64 -4 -109 -16 -24 -52 -35 -138 -43 -12 -1 -20 -7 -18 -13 2 -6 0 -16 -5
-21 -21 -21 21 -36 102 -36 64 -1 83 3 90 15 6 11 23 16 55 16 24 0 52 6 60
13 12 10 17 10 23 0 6 -9 35 -12 100 -10 50 1 94 -1 98 -5 3 -3 16 -6 28 -6
55 0 141 -32 175 -65 20 -19 41 -35 48 -35 7 0 12 -4 12 -10 0 -5 -7 -10 -15
-10 -24 0 -30 -29 -10 -44 33 -24 11 -52 -53 -66 -32 -7 -69 -24 -83 -37 -22
-20 -31 -23 -47 -14 -15 8 -27 7 -48 -4 -15 -8 -32 -11 -37 -8 -6 3 -16 -2
-23 -12 -11 -15 -16 -16 -29 -5 -9 8 -24 10 -42 4 -16 -4 -31 -7 -34 -6 -4 1
-31 -8 -60 -19 -80 -31 -124 -38 -168 -26 -34 9 -43 8 -59 -6 -11 -10 -26 -15
-34 -12 -18 7 -32 -21 -16 -31 7 -4 6 -9 -3 -15 -23 -15 -49 -10 -50 9 0 13
-2 12 -9 -5 -9 -22 -87 -63 -120 -63 -24 0 -108 -38 -129 -59 -9 -9 -31 -23
-49 -30 -18 -7 -32 -20 -32 -28 0 -7 -8 -17 -19 -21 -29 -11 -91 -70 -91 -86
0 -8 -4 -17 -9 -20 -5 -3 -13 -25 -19 -49 -6 -24 -21 -52 -32 -62 -11 -10 -20
-28 -21 -39 -1 -37 -25 -91 -33 -77 -6 10 -12 9 -26 -4 -15 -14 -23 -14 -59
-3 -22 7 -41 19 -41 26 0 9 -5 10 -19 2 -27 -14 -34 -13 -27 5 9 24 -39 73
-68 68 -13 -3 -27 0 -30 6 -4 5 -12 8 -19 6 -13 -5 -43 53 -53 105 -6 29 -5
32 10 27 12 -5 19 0 25 16 5 12 7 26 4 30 -3 4 9 22 26 39 22 22 30 40 28 57
-4 30 -40 36 -64 9 -10 -11 -30 -18 -55 -18 -60 0 -101 -23 -149 -83 -52 -65
-87 -73 -79 -18 1 8 -4 18 -12 22 -11 7 -10 11 2 18 12 9 12 11 -3 17 -10 3
-19 5 -20 3 -26 -47 -38 -64 -46 -62 -5 1 -14 -11 -21 -27 -10 -24 -19 -30
-41 -30 -16 0 -29 -4 -29 -10 0 -5 7 -10 16 -10 9 0 14 -5 12 -11 -2 -6 -6 -9
-8 -8 -3 1 -15 -3 -28 -10 -21 -11 -21 -13 -7 -41 8 -16 15 -34 15 -40 0 -24
29 -41 49 -30 47 25 86 3 55 -31 -15 -17 -16 -23 -6 -40 13 -20 7 -44 -8 -34
-5 3 -15 -3 -22 -12 -7 -10 -21 -24 -30 -32 -16 -12 -19 -10 -30 15 l-12 29
-4 -34 c-5 -44 -29 -81 -53 -81 -23 0 -37 29 -20 39 13 9 4 41 -11 41 -6 0 -5
-6 2 -15 11 -13 8 -15 -13 -15 -14 0 -28 -4 -32 -9 -3 -6 -13 -9 -23 -9 -9 0
-24 -1 -32 -3 -10 -3 -16 5 -18 24 -3 24 -8 28 -29 25 -17 -2 -32 -14 -42 -33
-28 -52 -61 -83 -82 -78 -14 4 -19 0 -19 -16 0 -19 -6 -21 -51 -21 -28 0 -59
-5 -69 -10 -15 -8 -21 -6 -30 10 -8 14 -19 20 -38 18 -21 -2 -26 1 -24 15 3
20 -18 23 -36 5 -9 -9 -12 -9 -12 2 0 8 -12 -2 -27 -23 -14 -20 -32 -37 -38
-37 -7 0 -18 -7 -25 -15 -10 -13 -10 -19 5 -35 20 -23 6 -27 -26 -7 -17 10
-23 9 -39 -10 -22 -28 -52 -31 -48 -5 2 11 -2 16 -12 13 -13 -4 -48 -8 -89
-10 -8 -1 -11 -7 -7 -18 4 -9 1 -20 -6 -25 -19 -12 -62 -10 -76 4 -9 9 -12 9
-12 -1 0 -26 29 -41 79 -41 28 0 51 -5 51 -10 0 -6 -11 -29 -26 -51 -31 -50
-67 -52 -72 -4 -4 34 -20 57 -34 49 -5 -3 -7 -13 -4 -22 7 -22 -47 -82 -73
-82 -10 0 -21 -9 -24 -20 -5 -18 3 -25 25 -21 4 0 5 -6 2 -14 -8 -19 -34 -20
-34 0 0 16 -39 56 -49 50 -4 -2 -13 0 -20 5 -17 10 -7 39 16 46 38 13 82 38
77 46 -10 16 -49 7 -75 -17 -14 -15 -37 -27 -50 -28 -13 -1 -38 -12 -56 -25
-27 -19 -40 -22 -89 -17 -66 6 -67 6 -58 29 5 14 9 15 15 5 4 -8 9 -11 11 -9
2 3 14 17 27 32 33 38 17 56 -47 54 -26 -2 -53 2 -59 7 -10 7 -13 4 -13 -12 0
-12 6 -21 15 -21 20 0 19 -19 0 -26 -13 -5 -15 -31 -14 -170 l2 -164 29 0 c21
0 31 -6 35 -20 3 -11 9 -18 13 -15 11 7 40 -40 40 -65 0 -25 -18 -26 -28 -1
-4 11 -25 34 -47 51 l-40 32 -3 -168 c-1 -92 -1 -168 1 -170 2 -2 17 0 34 5
22 6 43 5 70 -4 50 -19 260 -20 265 -3 4 10 10 10 32 0 15 -6 45 -12 66 -12
34 0 40 3 40 21 0 18 -4 20 -25 15 -28 -7 -29 -6 -14 26 19 43 98 85 95 52 -2
-33 24 -25 51 15 15 22 33 40 39 41 7 0 14 7 18 15 3 8 12 15 20 15 16 0 63
59 49 61 -4 1 -16 1 -25 0 -21 -3 -21 -3 -7 38 6 17 15 31 20 31 13 0 11 -24
-3 -38 -9 -9 -8 -12 8 -12 11 0 24 4 30 10 15 15 54 0 54 -21 0 -11 4 -19 10
-19 22 0 59 24 69 46 6 13 18 24 28 24 9 0 27 10 40 22 21 20 24 20 41 5 14
-13 26 -14 57 -7 22 5 41 14 43 20 6 18 134 74 164 72 18 -2 31 3 34 13 4 8
14 15 23 15 25 0 61 29 61 49 0 15 9 18 53 18 57 0 129 22 123 38 -2 5 -9 9
-15 7 -6 -1 -11 7 -11 18 0 15 7 20 25 20 14 0 25 -5 25 -11 0 -6 15 -1 34 10
42 26 49 26 41 0 -6 -18 -4 -20 17 -14 12 4 25 12 26 16 2 5 12 9 23 9 10 0
19 5 19 10 0 6 7 10 16 10 9 0 14 5 12 12 -6 18 -28 22 -28 5 0 -8 -9 -17 -20
-20 -21 -5 -24 1 -14 27 3 9 10 13 16 10 15 -10 49 27 43 47 -3 9 -1 20 5 24
5 3 10 15 10 26 0 11 11 24 25 31 14 6 25 19 25 30 0 10 3 18 8 18 4 0 7 -27
7 -59 0 -33 -3 -63 -7 -67 -5 -4 -8 -14 -8 -23 0 -11 5 -9 20 7 12 12 25 22
30 22 14 0 90 72 85 81 -3 3 4 9 14 12 11 3 22 -1 25 -9 4 -11 13 -10 48 4 24
10 51 16 61 14 11 -2 20 5 26 20 6 13 10 16 10 8 1 -10 6 -8 16 7 17 24 69 53
95 53 10 0 20 6 23 14 3 7 23 17 44 20 61 11 71 16 76 36 5 19 38 27 84 21 7
-1 17 8 23 19 6 11 16 20 22 20 6 0 34 11 62 24 28 14 88 36 133 51 l82 26 21
-21 c11 -11 18 -25 15 -30 -9 -15 29 -80 43 -75 8 3 30 8 51 11 27 4 41 14 53
35 17 28 42 43 103 60 17 4 40 11 53 14 16 6 22 3 22 -8 0 -8 -5 -17 -12 -19
-6 -2 -8 -9 -4 -16 9 -15 36 -4 36 14 0 8 10 18 22 23 19 7 19 8 4 14 -13 5
-16 14 -12 31 5 19 0 29 -20 45 l-27 21 43 -5 c24 -3 56 -13 72 -23 29 -16 30
-16 47 4 9 12 27 25 39 28 12 4 27 16 32 27 7 12 21 19 39 19 20 0 30 6 34 20
3 11 13 20 23 20 9 0 37 11 61 25 l43 26 0 -26 c0 -14 4 -25 9 -25 15 0 32 27
26 41 -7 19 57 59 93 59 18 0 40 11 58 27 22 21 41 28 79 31 33 2 57 10 71 23
12 11 30 20 40 19 38 -4 55 1 76 22 12 12 35 22 51 22 31 1 52 26 22 26 -27 0
-11 25 18 28 15 2 25 8 22 13 -4 5 -17 6 -31 3 -25 -6 -26 -5 -29 66 -1 19 -7
26 -30 30 -17 3 -25 8 -20 12 20 12 80 -7 79 -25 -1 -10 3 -14 10 -10 6 4 23
6 39 4 45 -4 87 8 80 25 -3 8 0 14 6 14 6 0 11 -4 11 -10 0 -16 27 -12 34 5 3
8 15 15 26 15 11 0 20 5 20 10 0 6 14 10 31 10 26 0 29 2 20 14 -10 12 -8 13
9 9 11 -3 28 1 38 10 9 8 28 18 41 22 13 4 44 20 68 35 24 15 65 31 91 34 26
4 60 9 76 12 26 6 28 4 23 -15 -3 -14 0 -21 9 -21 23 0 77 26 100 48 12 11 29
22 40 24 27 5 31 38 5 38 -20 0 -37 16 -23 22 4 1 17 25 28 52 23 58 35 65 62
36 12 -13 25 -18 36 -14 9 3 28 -2 44 -12 15 -11 40 -24 57 -30 38 -14 67 -64
67 -115 -1 -37 2 -41 59 -79 33 -22 65 -40 70 -40 5 0 26 -15 46 -34 31 -27
49 -34 92 -38 50 -5 57 -3 89 27 35 31 35 32 17 58 -9 15 -21 27 -26 27 -5 0
-9 5 -9 12 0 6 -9 31 -21 55 -23 48 -20 84 6 63 8 -7 15 -19 15 -26 0 -17 16
-18 26 -3 4 6 13 -1 23 -18 11 -16 34 -34 57 -42 21 -7 56 -27 78 -43 25 -20
54 -32 83 -36 39 -4 45 -2 50 17 5 20 10 22 44 16 26 -4 39 -3 39 4 0 14 35
14 61 1 12 -7 19 -7 19 -1 0 5 8 12 18 14 16 4 16 5 0 6 -11 1 -18 9 -18 21 0
21 15 27 25 10 10 -16 35 1 35 26 0 12 8 27 17 32 21 12 32 137 14 155 -6 6
-11 43 -11 84 0 53 -5 84 -20 112 l-19 38 22 22 c20 18 23 32 26 104 1 57 -3
98 -15 132 -11 34 -13 50 -5 53 14 5 14 37 1 62 -6 11 -6 21 -1 24 5 3 8 48 7
99 -2 126 -10 138 -113 161 -43 10 -113 29 -155 43 -99 32 -134 27 -58 -9 30
-14 76 -32 103 -39 26 -7 47 -16 47 -20 0 -11 60 -29 96 -29 32 0 34 -2 34
-33 0 -17 -11 -53 -25 -79 -14 -26 -25 -54 -25 -63 0 -8 -4 -15 -10 -15 -12 0
-28 -59 -22 -83 6 -24 28 -21 46 5 22 31 30 16 18 -34 -6 -24 -10 -60 -10 -82
0 -21 -4 -41 -10 -45 -5 -3 -11 -19 -14 -36 -11 -64 -26 -88 -54 -83 -9 2 -21
-6 -28 -17 -6 -10 -17 -25 -23 -33 -16 -16 -17 -48 -3 -57 13 -8 13 -85 0 -85
-9 0 -35 40 -32 50 1 3 -8 5 -21 5 -15 0 -22 6 -22 20 0 11 -8 21 -18 23 -9 2
-17 -1 -17 -6 0 -5 -11 -20 -24 -33 -16 -16 -25 -38 -27 -64 -1 -22 -8 -46
-13 -54 -8 -10 -8 -15 2 -18 13 -5 7 -23 -7 -23 -14 0 -19 62 -9 93 6 15 7 39
4 53 -6 23 -11 26 -46 22 -28 -2 -40 0 -40 9 0 7 6 13 14 13 20 0 26 12 19 38
-3 13 -13 22 -25 22 -10 0 -16 -4 -13 -10 3 -5 -3 -10 -14 -10 -12 0 -26 -9
-33 -20 -13 -20 -38 -28 -38 -11 0 5 -6 16 -14 23 -12 13 -23 124 -17 178 1
13 2 13 11 0 9 -13 12 -13 24 3 13 17 15 15 32 -20 24 -49 48 -54 63 -12 6 17
8 36 5 41 -3 5 -7 23 -8 40 -1 16 -10 34 -19 40 -11 6 -17 21 -17 43 0 18 -7
41 -16 49 -10 11 -12 21 -6 32 6 10 5 29 -1 50 -10 31 0 65 10 37 3 -7 12 -13
20 -13 14 0 15 11 9 80 l-6 79 29 8 c30 8 30 8 15 39 -9 19 -32 40 -59 53 -46
23 -50 29 -60 102 -6 51 4 63 44 52 13 -3 21 -1 21 7 0 7 -7 10 -15 6 -9 -3
-15 0 -15 9 0 8 -11 22 -25 31 -27 18 -33 40 -12 47 7 2 8 8 3 13 -5 5 -11 4
-13 -3 -8 -22 -28 -14 -41 15 -47 107 -62 160 -62 219 0 40 4 63 11 63 8 0 8
4 1 13 -6 7 -14 49 -17 92 -3 44 -8 98 -10 120 -3 22 -6 54 -8 72 -2 18 0 30
5 27 13 -8 9 20 -11 86 -11 34 -17 59 -14 56 3 -2 11 1 18 7 11 10 11 15 0 27
-18 22 -29 60 -16 60 14 0 14 37 0 46 -6 3 -8 15 -6 26 3 11 1 29 -6 39 -16
25 1 39 19 15 18 -25 18 -4 0 37 -29 65 -27 75 12 75 23 0 41 7 51 20 9 11 29
23 45 26 16 4 30 15 33 26 3 11 8 20 12 20 3 0 12 4 20 9 11 7 10 16 -5 50
-17 39 -20 41 -62 41 -29 0 -41 4 -36 11 4 7 21 9 44 5 53 -8 139 20 169 55
24 29 54 38 66 20 3 -5 -4 -16 -15 -24 -25 -17 -16 -27 25 -27 38 0 49 -8 33
-27 -9 -11 -9 -17 3 -24 8 -5 20 -7 28 -4 7 3 20 0 27 -6 8 -6 40 -12 71 -13
67 -2 84 -24 33 -43 -25 -9 -30 -9 -30 4 0 8 -6 13 -12 10 -7 -2 -12 -9 -11
-15 2 -6 -6 -16 -17 -22 -20 -11 -26 -43 -14 -74 7 -19 31 -21 36 -4 2 6 10 8
16 4 9 -5 9 -11 -2 -22 -8 -8 -19 -14 -25 -14 -6 0 -11 -9 -11 -20 0 -11 7
-20 15 -20 8 0 15 -4 15 -10 0 -5 12 -10 26 -10 24 0 26 -3 20 -27 -4 -16 -8
-38 -11 -51 -6 -38 -68 -174 -90 -197 -49 -53 -68 -82 -60 -94 8 -14 73 27 80
50 4 11 31 36 60 54 29 19 56 42 60 52 6 15 9 13 16 -12 6 -21 4 -34 -5 -45
-8 -8 -18 -33 -21 -55 -4 -22 -14 -47 -22 -56 -8 -9 -24 -46 -37 -81 -13 -35
-37 -93 -54 -129 -16 -35 -35 -79 -42 -96 -7 -18 -16 -33 -21 -33 -5 0 -9 -24
-8 -52 0 -45 2 -50 12 -34 7 10 19 28 29 40 16 21 16 21 25 -14 6 -22 16 -36
29 -39 10 -2 30 -12 43 -22 13 -11 31 -19 40 -19 10 0 22 -5 29 -12 8 -8 15
-8 25 0 7 6 22 9 33 6 12 -3 27 3 39 16 19 21 19 22 -5 40 -25 19 -25 19 -38
-6 -8 -14 -16 -24 -18 -21 -3 3 -7 42 -9 87 -2 45 -8 87 -13 94 -11 13 -9 66
3 86 4 7 9 45 11 84 6 140 17 231 29 249 13 18 13 18 20 -2 3 -11 1 -29 -5
-40 -6 -11 -10 -33 -8 -48 1 -15 -2 -39 -6 -52 -6 -16 -4 -26 5 -32 7 -4 15
-31 17 -59 2 -36 0 -50 -7 -46 -6 4 -11 0 -11 -11 0 -10 -3 -28 -6 -40 -5 -18
-1 -25 18 -32 24 -9 25 -11 15 -71 -9 -54 -8 -67 9 -97 26 -50 22 -109 -10
-134 -28 -22 -33 -48 -14 -67 9 -9 16 -8 29 4 16 14 18 14 28 -4 6 -11 11 -38
11 -59 -1 -21 0 -47 2 -58 3 -17 -2 -19 -27 -17 -16 2 -33 9 -37 15 -6 9 -10
8 -17 -2 -5 -7 -14 -10 -20 -6 -19 11 -116 25 -241 34 -75 5 -126 14 -148 25
-20 10 -48 16 -70 14 -31 -3 -34 -5 -17 -12 11 -5 49 -23 85 -40 54 -26 78
-31 145 -33 114 -2 235 -22 235 -39 0 -7 -10 -19 -22 -25 -12 -6 -31 -20 -42
-30 -11 -11 -23 -19 -28 -19 -4 0 -8 -9 -8 -20 0 -15 7 -20 25 -20 14 0 25 -5
25 -11 0 -7 9 -9 22 -6 14 4 29 0 41 -10 15 -15 20 -15 27 -3 11 17 4 30 -16
30 -16 0 -18 11 -5 26 5 5 11 20 13 33 4 30 21 37 41 16 9 -8 20 -15 26 -15
18 0 32 -68 34 -169 1 -73 5 -101 14 -101 7 0 18 -8 24 -18 7 -12 20 -17 33
-15 37 7 74 -13 71 -39 -1 -13 -3 -24 -4 -26 0 -2 -11 4 -23 12 -12 9 -30 16
-40 16 -10 0 -18 4 -18 10 0 5 -10 14 -21 21 -31 16 -36 1 -26 -73 10 -76 11
-122 4 -208 -7 -85 -1 -109 24 -103 11 3 19 14 19 27 0 11 4 27 9 35 12 19 57
6 71 -20 9 -17 7 -26 -15 -55 -28 -37 -46 -42 -65 -19 -17 21 -28 8 -31 -37
-4 -48 2 -53 40 -33 18 9 36 13 41 10 6 -3 10 1 10 10 0 8 16 23 35 32 19 9
35 21 35 26 0 4 10 8 23 6 31 -2 87 20 87 36 0 21 -25 35 -63 33 -20 -1 -43 5
-52 12 -26 22 1 40 61 40 60 0 120 23 147 57 22 27 72 31 105 7 25 -17 29 -34
8 -34 -8 0 -16 -6 -19 -14 -6 -16 24 -14 78 5 27 10 35 18 32 31 -3 10 2 22
11 27 13 7 12 10 -5 20 -12 6 -43 12 -69 14 -26 1 -49 8 -51 14 -4 11 28 23
62 23 16 0 21 6 20 27 0 24 5 28 38 34 48 8 75 -12 83 -61 5 -31 2 -37 -20
-50 -29 -15 -25 -24 14 -33 20 -5 28 -1 35 14 11 23 34 37 109 65 63 24 75 43
50 77 -23 32 -48 36 -39 7 5 -15 -1 -22 -31 -35 -50 -21 -52 -20 -69 22 -19
46 -7 63 29 39 14 -9 33 -16 42 -16 15 0 15 2 0 25 -15 23 -15 26 4 45 32 32
54 26 79 -22 8 -15 17 -27 20 -26 20 4 41 -17 41 -42 0 -44 15 -44 70 -3 47
35 49 38 28 46 -13 5 -33 3 -50 -4 -32 -13 -52 -3 -25 13 13 7 17 17 13 34 -4
14 -2 24 4 24 15 0 12 33 -4 55 -31 42 15 61 61 25 19 -15 30 -17 44 -9 11 5
27 8 37 5 9 -3 24 -1 32 4 13 9 13 11 0 20 -21 13 -67 13 -72 -2 -3 -8 -9 -8
-24 0 -19 11 -19 11 1 18 30 11 36 26 20 51 -8 12 -15 32 -15 44 0 19 4 20 39
14 35 -6 41 -4 56 19 12 17 15 35 10 56 -6 27 -4 30 19 30 46 0 74 -18 92 -60
18 -40 18 -41 62 -34 25 4 67 22 100 45 32 20 80 43 107 49 28 6 97 34 155 62
58 29 113 56 124 61 10 5 27 10 39 13 11 2 36 14 56 27 20 13 46 27 59 31 12
4 22 11 22 16 0 5 13 11 30 15 16 4 32 11 35 16 4 5 15 9 26 9 11 0 34 13 51
30 23 23 38 30 69 30 22 0 47 4 57 10 9 5 46 21 82 36 61 24 90 36 166 69 28
12 30 17 27 52 -3 42 12 89 31 96 7 3 33 -14 57 -39 24 -24 50 -43 58 -44 7 0
56 20 109 45 52 25 105 45 118 45 32 0 114 29 146 51 14 11 36 19 47 19 12 0
29 4 39 9 51 27 138 56 279 92 87 22 162 44 167 49 6 6 21 10 36 10 36 0 94
56 85 84 -3 11 -9 29 -12 39 -4 12 -1 16 10 12 8 -4 22 1 31 10 13 14 18 14
29 3 7 -7 16 -21 20 -30 5 -14 18 -18 54 -18 26 -1 103 -3 170 -6 113 -6 126
-4 158 15 20 11 55 24 78 28 23 3 60 18 81 32 l40 26 -27 9 c-15 6 -27 15 -27
22 0 7 -5 14 -12 16 -25 9 30 45 78 53 27 4 60 15 74 25 26 18 86 31 178 38
36 3 31 60 -9 95 -31 27 -36 61 -9 63 8 1 21 2 28 3 9 1 12 36 12 141 l0 140
-24 0 c-37 0 -52 25 -32 54 8 14 25 27 36 31 19 6 20 14 20 305 0 193 -4 301
-10 305 -19 12 -68 -6 -110 -39 -39 -31 -44 -32 -92 -25 -37 6 -60 17 -83 39
-35 34 -45 37 -45 15 0 -8 5 -15 10 -15 6 0 10 -7 10 -16 0 -9 5 -12 12 -8 7
5 8 3 2 -7 -4 -8 -9 -32 -11 -54 -1 -22 -2 -48 -3 -58 -1 -15 -10 -18 -53 -16
-29 1 -86 -2 -128 -6 -73 -7 -75 -7 -92 18 -13 20 -28 28 -67 33 -28 4 -50 11
-50 16 0 5 -4 7 -9 4 -4 -3 -16 0 -25 7 -22 16 -8 59 26 81 45 29 169 55 228
47 67 -8 129 -7 153 4 16 7 16 8 1 20 -13 9 -16 22 -11 55 6 50 31 74 89 90
50 14 86 3 104 -31 15 -30 54 -51 117 -63 l37 -7 0 821 c0 714 -2 820 -15 820
-8 0 -28 13 -44 29 l-29 29 27 26 c15 14 35 26 44 26 15 0 17 15 17 133 l0
133 -30 11 c-20 7 -30 18 -30 32 0 22 -16 37 -22 20 -3 -8 -9 -6 -20 5 -20 20
-38 20 -74 1 -16 -8 -38 -15 -48 -15 -11 0 -33 -4 -50 -9 -17 -6 -58 -17 -91
-26 -75 -21 -108 -37 -165 -80 -25 -18 -51 -34 -58 -34 -15 -1 -49 17 -79 42
-18 16 -30 17 -80 11 -32 -5 -65 -8 -73 -7 -8 1 -34 5 -57 9 -39 6 -43 4 -43
-14 0 -21 28 -33 95 -44 11 -2 22 -5 25 -8 3 -3 14 -10 25 -16 11 -6 20 -17
20 -25 1 -27 25 -58 40 -53 19 8 62 -39 70 -76 5 -21 0 -34 -18 -54 -13 -14
-32 -26 -41 -26 -9 0 -16 -4 -16 -10 0 -5 -18 -10 -40 -10 -28 0 -40 4 -40 14
0 16 -34 31 -50 21 -5 -3 -10 -15 -10 -25 0 -10 -6 -23 -14 -27 -7 -4 -18 -18
-25 -30 -6 -13 -16 -23 -21 -23 -17 0 -89 -54 -90 -67 0 -7 -12 -19 -26 -26
-17 -9 -23 -17 -15 -21 6 -4 11 -23 11 -42 0 -24 5 -34 15 -34 22 0 19 -36 -5
-60 -23 -23 -51 -25 -83 -9 -42 23 -51 66 -15 71 20 3 17 8 -29 55 -28 29 -53
60 -55 70 -2 13 -14 19 -46 21 -23 2 -40 7 -37 11 3 5 -12 12 -33 16 -20 4
-51 15 -68 25 -17 11 -39 17 -52 13 -15 -3 -24 0 -28 11 -3 9 -12 16 -20 16
-8 0 -14 4 -14 8 0 16 -54 5 -60 -12 -6 -17 -28 -33 -90 -62 -27 -13 -43 -14
-72 -7 -20 6 -43 6 -50 2 -7 -5 -37 -9 -66 -9 -48 0 -55 3 -91 40 -22 23 -48
40 -61 40 -12 0 -28 7 -36 15 -9 8 -26 15 -39 15 -25 0 -119 -43 -147 -67 -25
-22 -57 2 -55 41 0 17 -3 56 -8 87 -6 48 -4 63 16 107 20 44 29 52 65 62 23 7
50 9 60 6 11 -3 45 -8 77 -11 50 -5 60 -3 82 17 23 22 45 66 45 91 0 7 -14 18
-30 25 -17 8 -28 17 -25 22 11 18 -27 40 -70 40 -37 0 -47 5 -69 33 -14 17
-26 26 -26 20 0 -7 -4 -13 -10 -13 -20 0 -9 36 20 68 16 18 33 44 36 58 3 13
10 24 15 24 17 0 9 21 -16 46 -14 14 -32 23 -39 21 -15 -6 -55 27 -57 46 -1 7
0 20 1 31 2 21 -33 58 -52 54 -17 -4 -39 45 -43 99 -2 25 -11 53 -20 63 -8 9
-17 26 -19 36 -3 11 -7 27 -11 37 -9 21 18 23 77 5 29 -9 38 -16 36 -31 -2
-14 8 -23 47 -38 28 -10 53 -19 58 -19 12 0 8 28 -8 44 -13 13 -13 18 7 50 27
40 41 48 73 40 31 -8 40 -56 21 -117 -10 -34 -11 -47 -3 -47 7 0 22 -3 34 -6
17 -5 28 3 53 37 25 36 38 44 68 47 20 2 41 10 45 18 11 20 87 19 87 -1 0 -8
7 -15 16 -15 9 0 28 -9 44 -20 15 -11 30 -17 33 -14 3 4 34 1 69 -5 64 -11
169 -16 473 -26 94 -3 187 -10 208 -16 20 -5 56 -10 80 -9 23 0 82 -5 130 -11
78 -10 92 -10 128 6 21 10 39 21 39 25 0 10 69 40 94 40 13 0 39 -14 57 -31
47 -42 69 -49 162 -50 45 -1 92 -4 105 -7 13 -4 45 -5 72 -4 l50 4 0 1219 0
1219 -5400 0 -5400 0 0 -985z m5045 280 c72 -33 168 -54 211 -48 29 4 32 2 48
-38 19 -48 34 -169 20 -169 -5 0 -17 7 -27 15 -27 20 -154 29 -206 15 -70 -18
-74 -27 -54 -105 l18 -66 60 -25 c64 -26 108 -27 195 -5 51 14 60 23 60 69 0
17 4 32 8 32 16 0 34 -83 34 -154 1 -61 -2 -72 -21 -84 -11 -8 -21 -21 -21
-28 0 -14 -36 -19 -102 -14 -24 1 -68 20 -108 45 -34 22 -207 20 -262 -3 -20
-8 -28 -8 -31 1 -5 15 -50 -7 -83 -40 -13 -13 -31 -23 -41 -23 -27 0 -63 -28
-57 -44 7 -19 67 -29 96 -16 13 7 32 26 42 44 17 31 56 65 56 47 0 -5 15 -14
33 -21 34 -14 67 -38 67 -50 0 -12 -45 -28 -96 -35 -85 -11 -94 -14 -94 -36 0
-29 26 -34 79 -16 26 9 81 17 126 17 112 2 107 3 100 -20 -10 -32 5 -29 125
23 l35 15 -30 12 c-16 7 -58 14 -93 16 -40 2 -68 9 -78 19 -14 13 -13 15 6 15
12 0 38 16 57 35 19 19 37 35 39 35 2 0 15 -17 28 -38 13 -21 40 -49 60 -62
46 -32 52 -50 24 -72 -13 -10 -18 -18 -13 -18 23 0 -53 -33 -90 -39 -33 -5
-44 -2 -61 16 -13 14 -31 21 -51 21 -26 -1 -29 -3 -18 -14 7 -7 24 -16 39 -20
19 -4 26 -13 26 -30 0 -18 7 -24 34 -30 36 -6 50 -25 41 -55 -8 -24 -56 -39
-126 -39 -32 0 -91 -5 -132 -10 -68 -10 -79 -9 -114 9 -21 12 -47 34 -56 51
l-18 30 25 0 c19 0 27 7 32 24 16 64 -28 88 -70 39 l-25 -28 -26 29 c-14 16
-25 34 -25 40 0 6 -16 25 -35 41 -28 24 -39 43 -50 90 -8 33 -14 73 -15 89 0
31 24 66 46 66 15 0 20 18 29 109 3 35 16 86 29 115 12 28 26 76 29 107 13
109 43 150 129 180 73 25 165 19 243 -16z m-3240 -875 c11 -12 31 -20 50 -20
45 0 203 -36 220 -50 8 -7 15 -9 15 -6 0 4 9 2 20 -4 11 -6 18 -15 15 -21 -4
-5 1 -11 9 -14 45 -14 51 -17 39 -22 -7 -3 -13 -11 -13 -19 0 -11 18 -14 82
-14 122 0 89 -9 -48 -13 -123 -4 -240 16 -291 49 -25 16 -63 19 -63 5 0 -5
-42 -9 -92 -9 -84 -1 -96 1 -120 23 -16 13 -28 30 -28 37 -1 7 -12 0 -25 -17
-14 -16 -25 -27 -25 -22 0 4 1 9 3 11 1 2 -7 14 -17 25 -20 22 -20 22 2 43
l22 22 25 -24 25 -23 0 21 c0 13 6 22 15 22 8 0 15 6 15 14 0 18 8 21 84 23
52 2 66 -1 81 -17z m-1083 -300 c15 -30 34 -60 41 -67 34 -34 128 -46 417 -52
157 -4 290 -9 296 -13 5 -4 75 -8 155 -9 79 -1 209 -10 289 -20 80 -10 188
-17 240 -16 76 1 109 -3 167 -22 68 -22 74 -22 120 -8 66 21 113 28 113 18 0
-5 26 -9 58 -8 75 0 147 -31 154 -66 4 -23 0 -27 -46 -41 -28 -8 -63 -18 -78
-22 -28 -6 -60 -34 -40 -34 6 0 9 -6 6 -14 -7 -19 -83 -19 -91 0 -3 8 -14 14
-24 14 -12 0 -19 7 -19 19 0 14 -9 20 -36 23 -35 4 -124 -12 -124 -22 0 -3
-18 -4 -40 -2 -25 3 -40 0 -40 -7 0 -6 -7 -11 -15 -11 -18 0 -37 -34 -46 -85
-3 -22 -9 -47 -13 -56 -4 -10 7 -30 35 -59 44 -46 41 -58 -15 -62 -14 -1 -26
-5 -26 -8 0 -3 -22 -3 -48 -2 -35 3 -52 -1 -61 -12 -15 -18 -81 -22 -98 -5
-10 10 -22 13 -98 25 -22 4 -44 13 -48 21 -5 8 -16 11 -28 8 -10 -4 -19 -2
-19 4 0 6 -7 8 -16 4 -12 -4 -12 -8 -3 -13 24 -15 -26 -29 -99 -27 -58 2 -74
-1 -84 -16 -19 -26 -116 -46 -176 -36 -52 8 -101 1 -142 -21 -40 -21 -161 -31
-184 -14 -11 8 -27 14 -34 14 -18 0 -32 16 -61 70 -13 25 -37 57 -53 73 l-30
27 -36 -19 c-20 -10 -55 -23 -78 -28 l-41 -9 -26 55 c-26 55 -57 91 -78 91 -6
0 -18 7 -27 16 -11 12 -27 15 -56 11 -23 -3 -62 -2 -88 2 -27 4 -48 4 -48 -1
0 -12 -38 -10 -46 4 -4 6 3 19 16 30 12 10 17 18 11 18 -7 0 -9 5 -6 10 3 6
17 10 29 10 15 0 31 11 42 28 9 15 24 32 32 38 11 8 15 28 14 65 -2 73 4 89
34 89 14 0 27 7 30 15 4 8 12 15 20 15 17 0 44 39 44 65 0 23 50 86 65 82 5
-2 22 -28 37 -57z m7360 -413 c5 -8 15 -7 35 3 42 21 64 20 111 -2 41 -19 57
-48 27 -48 -9 0 -15 -9 -15 -21 0 -11 -7 -27 -15 -35 -13 -13 -20 -12 -60 11
-28 17 -45 34 -45 46 0 12 -7 19 -20 19 -11 0 -20 5 -20 11 0 7 -20 10 -57 7
-49 -2 -58 0 -61 15 -5 27 35 37 78 19 19 -8 38 -19 42 -25z m-184 -424 c12
-3 22 -10 22 -17 1 -25 74 -58 140 -63 40 -2 71 -10 82 -20 36 -33 11 -104
-41 -116 -24 -6 -29 -2 -93 71 -32 37 -103 60 -130 43 -42 -26 -107 -5 -145
48 -29 39 -29 51 2 51 14 0 25 5 25 11 0 11 78 6 138 -8z m1369 -845 c30 -11
47 -38 23 -38 -5 0 -10 -5 -10 -12 0 -9 3 -9 12 0 7 7 18 12 26 12 8 0 21 8
28 18 13 16 13 16 14 0 0 -23 45 -25 54 -3 7 20 26 19 26 -1 0 -14 2 -14 16 1
10 10 23 13 33 9 9 -4 24 -6 34 -6 9 0 17 -3 17 -9 0 -5 7 -9 15 -9 24 0 17
-19 -10 -26 -14 -3 -25 -10 -25 -15 0 -5 -18 -9 -40 -9 -29 0 -40 4 -40 15 0
16 -29 19 -92 9 -31 -6 -38 -11 -38 -30 0 -22 -3 -23 -52 -17 -35 4 -61 14
-80 31 -31 28 -36 42 -13 42 8 0 22 11 31 25 19 28 25 30 71 13z m451 -1599
c43 -18 44 -18 72 2 19 14 49 23 93 26 56 5 71 2 101 -17 40 -24 45 -37 19
-47 -10 -4 -27 -15 -37 -25 -20 -18 -30 -22 -55 -18 -11 1 -10 -2 3 -15 9 -9
16 -30 16 -47 l0 -31 -25 23 c-17 16 -21 26 -14 31 15 9 -27 33 -45 26 -8 -3
-30 8 -50 25 -33 27 -36 28 -36 9 0 -27 -37 -51 -81 -51 -24 0 -39 -5 -43 -15
-4 -11 -22 -15 -72 -15 -60 0 -68 -3 -93 -29 -27 -29 -27 -29 -52 -10 l-24 19
25 20 c14 11 31 20 38 20 14 0 61 49 62 63 0 13 21 31 70 60 48 28 55 28 128
-4z m-1261 -57 c14 -33 13 -36 -10 -58 -13 -12 -33 -34 -45 -49 -42 -53 -77
-9 -62 76 15 82 88 101 117 31z m527 -98 c7 -19 8 -72 0 -100 -11 -41 -134
-55 -164 -18 -17 20 -4 64 19 64 10 0 36 16 57 35 42 37 78 45 88 19z m-2280
-466 c22 -7 47 -20 54 -29 7 -10 32 -21 56 -24 63 -10 73 -45 20 -65 -26 -10
-61 3 -78 28 -9 16 -80 9 -133 -13 -30 -13 -34 -12 -48 8 -19 28 -19 35 5 75
22 36 52 41 124 20z m-2211 -25 c8 -16 12 -34 9 -42 -3 -8 2 -28 11 -45 8 -17
18 -43 21 -58 5 -21 12 -28 29 -28 12 0 30 -9 40 -20 17 -21 63 -27 69 -10 2
5 31 12 66 15 66 7 68 6 63 -49 -1 -11 7 -28 16 -38 17 -19 17 -20 -2 -34 -28
-21 -45 -17 -45 11 0 14 -4 25 -10 25 -5 0 -10 6 -10 13 0 27 -38 59 -60 52
-27 -8 -21 -27 11 -36 16 -5 18 -7 6 -8 -10 -1 -29 7 -43 16 -21 13 -27 14
-34 3 -4 -7 -17 -10 -28 -8 -25 7 -38 -18 -17 -30 12 -6 13 -15 5 -42 -12 -43
-6 -49 23 -22 22 21 27 22 78 11 64 -14 85 -29 44 -29 -27 -1 -28 -2 -12 -14
9 -7 17 -18 17 -24 0 -17 -30 -23 -36 -7 -8 20 -64 47 -65 32 0 -8 -2 -8 -6 1
-2 6 -9 12 -14 12 -14 0 -10 -42 6 -70 8 -14 14 -39 15 -56 0 -25 9 -37 45
-63 25 -18 50 -41 55 -52 6 -10 16 -19 23 -19 7 0 23 -14 37 -31 40 -51 69
-73 95 -74 33 0 125 -99 118 -126 -6 -23 -22 -24 -49 -4 -10 8 -27 15 -37 15
-10 0 -35 11 -55 25 -20 14 -44 25 -53 25 -8 0 -33 20 -54 44 -21 25 -49 47
-62 51 -15 3 -23 13 -23 26 0 12 -8 23 -19 26 -10 3 -27 20 -37 39 -10 19 -24
34 -30 34 -6 0 -15 10 -21 23 -12 25 -47 196 -69 337 -8 52 -19 118 -23 145
-5 28 -12 58 -16 68 -12 29 13 20 28 -10z m2901 -98 c-2 -22 5 -49 21 -77 14
-24 25 -47 24 -53 0 -15 -67 -55 -82 -49 -6 3 -25 22 -42 43 -16 21 -33 37
-37 34 -14 -8 -8 38 6 53 8 7 17 32 21 54 8 48 37 66 71 44 15 -11 20 -23 18
-49z m634 -101 c28 -6 32 -11 38 -50 8 -56 29 -69 85 -54 22 6 42 17 45 24 8
22 59 7 76 -22 19 -33 13 -52 -14 -52 -20 0 -73 -47 -94 -85 -10 -16 -14 -18
-25 -7 -7 6 -23 12 -36 12 -13 0 -23 3 -23 8 0 4 -10 8 -22 8 -13 1 -45 10
-73 21 -59 22 -78 53 -69 110 7 43 19 64 49 81 24 14 24 14 63 6z m1045 -105
c17 -17 31 -35 30 -40 -2 -5 5 -9 15 -10 9 0 -1 -9 -23 -20 -22 -10 -46 -16
-54 -14 -14 5 -101 -44 -101 -57 0 -15 -27 -7 -46 13 -18 20 -18 21 1 35 10 8
28 14 40 14 21 0 55 45 55 74 0 14 25 35 43 36 4 0 22 -14 40 -31z m-1249
-125 c22 -9 20 -30 -5 -48 -18 -12 -27 -12 -58 -2 -44 16 -61 11 -61 -17 0
-25 -31 -63 -76 -95 l-31 -21 -12 25 c-6 14 -11 27 -11 30 0 11 84 94 95 94 7
0 18 7 25 15 7 9 21 13 31 10 11 -4 19 -2 19 4 0 12 58 15 84 5z m-3220 -200
c3 -9 6 -28 6 -42 1 -28 28 -97 29 -74 1 7 16 12 42 12 36 0 48 -7 88 -44 89
-86 106 -101 136 -116 40 -20 46 -57 10 -66 -31 -8 -133 4 -140 17 -10 16 -25
10 -25 -10 0 -12 11 -23 30 -30 17 -6 43 -19 57 -31 14 -11 35 -20 46 -20 11
0 28 -7 38 -16 11 -10 51 -20 106 -26 48 -5 89 -11 91 -12 1 -2 -1 -20 -6 -42
-6 -28 -17 -45 -42 -62 -31 -21 -42 -23 -97 -17 -58 6 -63 5 -63 -13 0 -27
-25 -45 -54 -40 -14 3 -45 2 -71 -2 -47 -7 -74 7 -59 31 3 6 7 30 8 52 2 36 6
42 31 50 41 13 41 14 15 42 -25 27 -60 34 -60 12 0 -21 -62 -36 -112 -26 -24
4 -47 8 -51 9 -4 0 -13 -14 -19 -31 -11 -31 -12 -31 -59 -26 -32 4 -49 2 -52
-6 -3 -9 -10 -9 -27 1 -33 20 -45 3 -32 -47 11 -45 10 -46 -33 -55 -20 -4 -37
-2 -50 8 -19 15 -19 15 11 16 28 0 31 3 27 25 -4 20 -13 25 -48 31 -57 8 -79
3 -83 -21 -2 -11 -13 -28 -23 -38 -24 -23 -18 -32 26 -47 19 -6 35 -16 35 -22
0 -6 9 -8 20 -5 11 3 18 1 15 -3 -3 -5 1 -26 10 -46 22 -54 20 -73 -5 -46 -12
12 -27 22 -34 22 -7 0 -21 9 -31 20 -10 11 -26 20 -37 20 -10 0 -18 7 -18 15
0 9 -9 15 -25 15 -14 0 -25 -4 -25 -10 0 -5 -7 -10 -15 -10 -8 0 -19 -9 -25
-20 -6 -12 -21 -20 -35 -20 -30 0 -32 11 -5 28 29 18 25 49 -10 67 -16 9 -30
20 -30 25 0 15 38 50 55 50 37 0 93 109 73 143 -11 21 -41 22 -58 2 -7 -9 -39
-28 -71 -43 -33 -15 -59 -33 -59 -39 0 -7 -2 -13 -4 -13 -2 0 -10 -2 -18 -5
-10 -4 -12 11 -8 77 3 46 3 106 0 133 -4 41 -9 51 -26 53 -23 3 -32 -14 -43
-78 -8 -44 -34 -51 -66 -16 -26 28 -48 32 -91 16 l-28 -11 32 -19 c36 -22 43
-50 12 -50 -13 0 -24 10 -31 28 -10 26 -11 26 -25 8 -8 -11 -14 -34 -14 -52 0
-25 5 -33 24 -38 19 -5 25 -14 28 -38 2 -25 9 -34 28 -38 17 -4 28 -16 36 -40
12 -35 46 -70 70 -70 8 0 14 -4 14 -8 0 -5 9 -19 20 -32 11 -13 20 -29 20 -37
0 -7 5 -13 12 -13 6 0 8 -3 4 -7 -4 -4 8 -13 26 -19 l33 -12 -40 -1 c-43 -1
-65 12 -65 40 0 9 -7 22 -15 29 -13 11 -21 10 -43 -7 -15 -11 -39 -23 -54 -26
-15 -4 -32 -16 -38 -27 -10 -18 -7 -22 24 -35 20 -8 41 -15 47 -15 7 0 9 -8 5
-22 -18 -59 -18 -95 -2 -101 10 -4 23 1 33 12 9 11 22 17 29 14 9 -3 14 2 14
15 0 13 9 21 28 25 15 4 52 29 81 57 30 27 59 50 64 50 4 0 5 5 2 10 -3 6 -4
10 -1 10 3 0 15 -18 27 -41 16 -32 25 -40 40 -36 16 4 18 3 9 -8 -6 -8 -21
-15 -33 -17 -16 -2 -23 -11 -25 -34 -3 -26 -7 -31 -23 -27 -10 3 -19 9 -19 13
0 4 -14 10 -30 12 -22 3 -29 1 -26 -8 3 -8 -6 -14 -27 -16 -23 -2 -33 -9 -35
-23 -5 -28 -62 -75 -91 -75 -14 0 -32 -6 -40 -14 -19 -17 -101 -38 -101 -26 0
4 11 15 25 24 13 9 32 30 41 48 15 30 15 32 -2 45 -16 12 -20 11 -30 -2 -6 -8
-30 -22 -54 -30 -52 -18 -50 -18 -50 0 0 8 -7 15 -15 15 -20 0 -37 -67 -24
-93 15 -26 -5 -39 -48 -32 -26 5 -33 2 -38 -15 -3 -11 -12 -20 -18 -21 -7 -1
-21 -2 -32 -3 -13 -1 -20 -8 -20 -23 -1 -49 -37 -54 -104 -12 -25 15 -31 23
-21 29 7 5 10 15 6 25 -5 14 -9 15 -21 5 -8 -7 -15 -20 -15 -29 0 -9 -9 -22
-20 -29 -11 -7 -20 -20 -20 -29 0 -15 1 -15 19 1 17 15 51 13 51 -3 0 -13 -24
-31 -42 -31 -10 0 -38 -18 -60 -40 -23 -22 -48 -40 -54 -40 -22 0 -26 19 -10
52 20 40 20 45 -3 53 -10 3 -21 18 -24 32 -4 21 2 34 27 57 18 18 40 29 53 27
33 -4 83 26 83 50 0 18 -4 20 -22 14 -41 -12 -63 -11 -63 5 0 9 9 15 24 15 13
0 28 8 34 17 17 26 -27 57 -80 58 -41 0 -63 13 -44 24 5 4 37 8 70 10 76 4
101 -11 101 -60 0 -27 4 -34 20 -34 13 0 20 7 20 19 0 25 51 45 100 38 45 -6
62 7 50 39 -5 13 -21 24 -40 27 -30 7 -31 8 -28 54 3 43 6 48 28 51 14 2 43
-4 63 -13 38 -16 38 -17 35 -63 -3 -46 -3 -47 27 -47 23 0 30 4 30 20 0 23 20
39 36 29 6 -3 8 -17 4 -31 -5 -23 -4 -24 32 -21 35 3 38 6 44 40 3 21 3 41 0
44 -3 3 -6 41 -7 84 0 57 3 81 13 84 22 9 15 60 -11 85 -13 12 -26 39 -30 60
-4 28 -15 44 -41 63 l-36 26 -61 -19 c-34 -11 -63 -17 -66 -15 -2 3 -1 21 2
40 7 35 41 64 97 81 13 4 36 16 50 26 14 10 37 21 51 24 14 4 36 18 49 31 18
19 32 24 75 24 29 0 55 4 58 9 3 4 34 11 68 14 59 5 64 4 91 -24 l28 -30 39
22 c21 12 40 29 43 39 3 12 19 18 58 23 30 3 74 15 99 27 25 12 59 29 75 36
33 16 151 52 205 63 19 4 49 15 65 23 39 21 42 21 49 2z m1724 -147 c17 -20
18 -72 2 -101 -9 -18 -22 -26 -41 -26 -15 0 -40 -5 -55 -10 -32 -13 -37 -9
-39 32 -3 37 10 68 28 69 7 0 28 11 47 24 42 28 44 29 58 12z m2029 -64 c15
-21 30 -40 33 -43 3 -3 16 -18 28 -34 41 -53 17 -91 -29 -45 -12 12 -32 20
-47 19 -55 -4 -61 -1 -67 33 -8 40 17 107 39 107 8 0 28 -17 43 -37z m-433
-69 c6 -18 -1 -23 -45 -37 -28 -10 -59 -17 -68 -17 -39 -1 -71 -49 -71 -109 0
-22 -6 -43 -12 -48 -13 -7 -175 -9 -182 -2 -2 2 -6 18 -9 36 -3 17 -13 44 -24
60 -10 15 -24 37 -29 48 -6 11 -26 27 -45 37 -31 15 -36 15 -51 1 -14 -13 -20
-13 -33 -3 -8 7 -15 18 -15 26 0 17 39 29 53 15 8 -8 16 -6 29 6 17 15 20 15
48 -12 17 -16 30 -35 30 -42 0 -34 105 -21 193 23 35 17 51 18 78 2 17 -11 23
-10 39 10 10 12 29 22 42 22 12 0 30 5 38 10 17 10 25 4 34 -26z m-4868 -289
c27 -9 57 -20 67 -25 12 -7 26 -6 46 5 28 14 32 13 58 -8 15 -12 40 -29 56
-36 29 -15 38 -55 14 -64 -20 -7 -120 38 -136 62 -18 27 -32 27 -54 -3 -25
-33 -55 -39 -112 -21 -27 8 -52 12 -57 9 -5 -4 -15 2 -22 12 -10 13 -21 16
-44 11 -58 -12 -57 35 3 72 25 14 113 8 181 -14z m4455 -72 c31 -19 37 -47 15
-75 -16 -22 -26 -23 -26 -3 0 21 -28 7 -36 -18 -4 -12 -12 -25 -18 -29 -8 -6
-7 -8 2 -8 21 0 13 -16 -13 -28 -61 -28 -78 -12 -89 81 l-6 57 30 0 c18 0 37
8 47 20 21 25 55 26 94 3z m-4841 -28 c0 -8 -4 -15 -9 -15 -5 0 -12 -23 -16
-50 -7 -53 -29 -76 -56 -59 -7 5 -28 9 -45 9 -22 0 -34 7 -43 24 -17 31 -7 46
30 46 19 0 29 5 29 15 0 18 52 44 88 45 13 0 22 -6 22 -15z m2350 0 c-7 -8
-18 -15 -25 -15 -6 0 -30 -20 -52 -44 -35 -39 -38 -45 -22 -49 21 -6 16 -37
-5 -37 -6 0 -16 -10 -21 -22 -6 -15 -24 -27 -50 -33 -22 -6 -50 -16 -62 -22
-25 -15 -33 -2 -33 52 0 18 -7 38 -15 45 -19 16 -19 36 -1 43 8 3 16 22 18 44
l3 38 113 1 c62 1 115 4 119 8 3 3 15 6 26 6 16 0 17 -3 7 -15z m0 -268 c0
-13 -5 -28 -11 -34 -5 -5 -12 -30 -14 -54 -8 -84 -17 -120 -36 -132 -13 -8
-15 -14 -7 -24 8 -10 5 -19 -12 -35 -15 -14 -19 -23 -11 -26 9 -3 9 -7 0 -18
-6 -8 -15 -14 -19 -14 -11 0 -50 36 -45 42 2 2 0 30 -5 61 -8 50 -27 87 -44
87 -12 0 -5 -46 9 -64 17 -22 20 -66 5 -66 -5 0 -10 13 -10 29 0 17 -4 33 -10
36 -5 3 -10 21 -10 39 0 18 -7 47 -15 63 -17 33 -11 63 12 63 8 0 31 14 52 30
31 25 46 31 79 29 23 -2 45 0 48 4 17 17 44 7 44 -16z m-1551 -272 c-11 -25
-19 -54 -17 -63 4 -20 6 -20 228 -25 86 -2 165 -9 175 -14 32 -17 106 -34 164
-38 31 -2 61 -11 72 -20 10 -10 23 -14 29 -10 15 9 91 -15 85 -26 -3 -4 -1
-10 5 -14 15 -9 12 -45 -5 -45 -55 0 -96 -71 -60 -106 11 -11 14 -25 10 -45
-4 -16 -5 -29 -3 -29 2 0 21 7 43 15 22 8 50 14 63 15 21 0 22 -3 16 -35 -4
-23 -2 -41 6 -50 18 -21 4 -32 -21 -17 -16 10 -23 10 -35 -3 -18 -17 -10 -37
14 -33 19 4 46 -42 32 -56 -6 -6 -20 -5 -36 3 -36 16 -61 6 -67 -28 -7 -35
-35 -46 -80 -32 -18 6 -44 7 -61 3 -15 -4 -44 -6 -62 -4 -29 4 -34 8 -35 31
l-2 26 -4 -26 c-3 -22 -11 -28 -39 -33 -56 -11 -68 5 -34 44 11 13 20 36 20
52 0 30 9 35 29 16 6 -7 16 -13 21 -13 18 0 71 -57 66 -71 -3 -8 -1 -14 3 -14
15 0 22 32 11 45 -7 9 -7 21 0 39 12 32 13 46 3 45 -25 -4 -23 5 10 35 44 40
46 52 12 68 -25 11 -34 28 -15 28 6 0 10 7 10 15 0 8 4 15 9 15 14 0 -7 79
-30 110 -12 15 -18 33 -15 39 4 6 -11 15 -36 21 -24 6 -55 15 -70 20 -30 9
-68 3 -68 -11 0 -4 19 -9 41 -11 37 -3 42 -6 45 -30 3 -35 -31 -64 -54 -46 -9
8 -10 14 -3 16 22 7 10 20 -31 34 -52 16 -128 12 -128 -6 0 -17 -37 -35 -80
-38 -31 -3 -35 -6 -38 -34 -2 -18 3 -36 12 -43 21 -17 82 -4 113 25 14 13 32
24 40 24 8 0 12 3 10 8 -6 11 31 43 38 32 4 -6 2 -10 -4 -10 -11 0 -9 -135 2
-147 4 -3 7 -13 7 -21 0 -9 6 -23 14 -31 8 -9 17 -35 21 -57 5 -34 3 -44 -12
-55 -29 -21 -53 -61 -53 -86 0 -13 -6 -23 -13 -23 -7 0 -34 -13 -60 -30 -26
-17 -54 -30 -62 -30 -7 0 -15 -4 -17 -9 -1 -4 -27 -11 -55 -15 -43 -5 -52 -4
-47 8 10 25 -13 27 -30 1 -9 -13 -25 -29 -37 -35 -19 -10 -20 -10 -10 9 6 11
11 46 12 78 0 39 7 68 19 88 11 17 24 37 29 46 8 12 1 29 -25 67 -18 28 -34
56 -34 61 0 6 -16 17 -35 25 -32 14 -35 18 -29 43 4 15 15 40 25 55 11 14 19
31 19 36 0 6 9 13 19 17 11 3 18 12 15 19 -5 14 34 50 85 78 17 9 31 25 31 34
0 14 -8 16 -62 10 -55 -6 -67 -11 -93 -40 -33 -37 -55 -37 -55 0 0 16 8 28 24
35 17 8 26 25 36 67 14 61 43 102 71 102 17 0 17 -3 -2 -45z m3198 -21 l-6
-34 60 0 c32 0 59 -4 59 -9 0 -5 -21 -27 -48 -49 -45 -38 -49 -39 -77 -27 -17
7 -37 21 -46 31 -18 22 -23 82 -9 119 8 22 12 23 41 13 28 -10 31 -14 26 -44z
m-5573 -119 c11 -8 32 -15 48 -15 34 0 36 -12 4 -37 -23 -18 -23 -22 -13 -66
9 -41 8 -49 -8 -67 -24 -26 -36 -25 -69 5 -15 14 -39 25 -53 25 -22 0 -25 3
-20 26 3 16 0 28 -9 31 -21 8 -17 15 26 47 22 17 40 35 40 42 0 11 14 21 30
23 3 0 14 -6 24 -14z m2134 -57 c-2 -17 -9 -22 -25 -21 -14 2 -24 -4 -28 -16
-7 -23 -75 -52 -104 -44 -16 4 -21 1 -22 -13 0 -18 -1 -17 -8 1 -5 11 -7 23
-5 26 2 4 -23 6 -55 5 -64 -1 -91 -16 -91 -52 0 -34 -19 -40 -122 -34 -83 4
-93 7 -93 24 0 10 7 22 15 27 43 22 90 39 109 39 11 0 40 7 64 15 24 8 93 17
153 19 89 4 212 20 181 25 -14 2 3 21 19 21 10 0 14 -8 12 -22z m1692 -263 c0
-7 15 -19 34 -25 19 -6 37 -17 40 -25 3 -8 30 -31 61 -50 40 -26 61 -34 79
-29 35 8 48 -2 35 -29 -20 -43 -57 -60 -135 -62 -57 -2 -74 0 -74 11 0 8 -4
14 -9 14 -10 0 -20 37 -28 105 -2 27 -9 58 -14 67 -12 22 -11 51 1 43 6 -3 10
-12 10 -20z m-345 -5 c6 -10 60 -8 72 3 11 12 21 7 26 -13 3 -12 14 -20 25
-20 24 0 64 -47 60 -69 -4 -18 -43 -20 -92 -6 l-29 8 22 -22 c21 -21 28 -51
12 -51 -16 0 -54 74 -52 103 1 15 -3 27 -8 27 -5 0 -7 -9 -4 -20 4 -16 2 -19
-11 -14 -9 3 -16 12 -16 19 0 7 -4 15 -9 17 -13 5 -24 48 -12 48 5 0 13 -4 16
-10z m-454 -254 c-9 -10 -7 -21 5 -43 16 -27 16 -31 0 -56 -16 -23 -20 -25
-33 -12 -25 26 -62 30 -81 9 -10 -11 -16 -27 -14 -36 2 -10 -4 -28 -12 -40
-14 -20 -14 -24 0 -39 12 -13 13 -19 3 -25 -7 -4 -15 -2 -17 4 -6 20 -22 13
-22 -9 0 -12 -5 -19 -12 -16 -7 2 -12 11 -12 19 1 10 -5 14 -16 11 -14 -4 -16
-17 -13 -100 4 -101 -6 -134 -33 -112 -11 9 -14 8 -14 -3 0 -23 -21 -38 -39
-28 -9 5 -24 11 -33 14 -10 3 -18 13 -18 22 0 13 7 16 35 11 21 -4 35 -2 35 5
0 5 6 8 14 5 19 -8 28 16 32 84 4 61 -6 78 -48 84 -79 11 -135 28 -153 46
l-20 21 21 -12 c18 -11 26 -10 55 11 19 14 40 25 47 24 29 -1 10 21 -27 29
-29 7 -41 15 -41 28 0 11 7 18 18 18 10 0 36 9 57 20 l40 21 14 -21 c16 -24
41 -27 41 -4 0 9 9 18 20 21 11 3 20 9 20 14 0 5 18 6 40 3 31 -5 40 -3 40 8
0 9 18 20 43 27 23 7 51 17 62 21 23 9 32 -5 16 -24z m1399 -23 c0 -7 6 -13
14 -13 17 0 46 -43 46 -69 0 -14 6 -18 24 -17 13 0 22 4 20 8 -2 3 0 18 6 32
12 33 40 35 40 2 0 -13 3 -39 7 -57 l6 -34 -25 17 c-14 9 -28 14 -32 11 -12
-13 -6 -43 10 -43 9 0 12 -5 8 -11 -4 -8 -27 -9 -70 -5 -39 4 -65 3 -69 -4 -3
-5 -13 -10 -21 -10 -11 0 -14 22 -14 115 l0 115 25 -12 c14 -6 25 -17 25 -25z
m-3200 -41 c0 -4 -5 -13 -12 -20 -10 -10 -7 -16 10 -28 24 -16 29 -39 11 -50
-6 -3 -15 -2 -21 4 -6 6 -18 8 -27 5 -34 -11 -80 -34 -83 -41 -2 -4 -20 -18
-41 -30 l-38 -22 7 35 6 35 -66 0 c-54 0 -66 -3 -66 -16 0 -12 -6 -15 -22 -11
-35 10 -69 -3 -78 -29 -6 -14 -18 -24 -28 -24 -40 0 -82 -22 -82 -42 0 -16 -5
-19 -24 -14 -18 4 -23 2 -22 -12 1 -12 -8 -18 -27 -20 -23 -3 -30 2 -42 32
-21 50 -19 108 5 136 11 13 20 27 20 32 0 5 21 18 47 30 41 18 58 20 142 13
53 -3 101 -11 108 -17 7 -5 22 -6 35 -2 25 8 100 14 161 14 20 -1 37 4 37 10
0 6 3 9 8 7 4 -2 21 4 37 14 34 20 45 23 45 11z m-1311 -48 c2 -2 -8 -4 -22
-4 -23 0 -27 -4 -27 -30 0 -16 -5 -30 -11 -30 -6 0 -8 -8 -4 -19 4 -15 -1 -21
-22 -29 l-28 -10 27 -7 c24 -6 26 -9 16 -31 -6 -13 -19 -24 -28 -24 -9 0 -22
-6 -28 -12 -10 -10 -17 -10 -32 0 -27 16 -50 15 -50 -3 0 -8 3 -14 8 -14 19 3
33 -2 27 -11 -3 -5 -17 -10 -30 -10 -18 0 -26 7 -31 26 -4 14 -2 30 5 37 14
14 15 30 1 22 -5 -3 -15 -3 -21 1 -17 10 47 34 91 34 21 0 42 6 47 13 17 20
24 65 12 72 -7 5 -5 13 6 25 13 14 26 17 53 13 21 -3 39 -7 41 -9z m-619 -62
c0 -28 -17 -46 -52 -58 -32 -11 -33 -13 -30 -58 2 -34 -1 -48 -12 -52 -9 -3
-16 -12 -16 -20 0 -19 49 -18 56 1 4 8 15 15 26 15 31 0 101 22 119 37 24 20
30 16 23 -14 -6 -22 -4 -25 10 -20 9 4 16 3 16 -1 0 -12 -44 -36 -59 -33 -7 1
-20 -7 -27 -18 -18 -25 -40 -18 -48 15 -7 25 -36 34 -36 11 0 -16 -35 -38 -52
-33 -7 3 -25 7 -40 10 -16 4 -28 13 -28 22 0 12 -9 14 -44 11 -25 -3 -49 -8
-55 -12 -6 -3 -11 -2 -11 4 0 5 8 15 18 20 9 6 11 11 5 11 -7 0 -13 5 -13 10
0 12 46 12 74 1 28 -11 66 -1 66 16 0 8 -9 17 -20 20 -24 6 -25 16 -4 34 8 7
22 25 30 41 8 15 21 28 29 28 8 0 15 6 15 13 0 7 5 18 12 25 15 15 48 -3 48
-26z m390 -1337 c7 -8 23 -15 36 -15 15 0 24 -6 24 -15 0 -8 7 -15 15 -15 8 0
15 -6 15 -14 0 -8 3 -21 6 -30 4 -11 -2 -19 -21 -26 -15 -6 -42 -25 -61 -42
-37 -35 -128 -65 -148 -49 -18 15 -44 -12 -48 -49 -2 -18 -9 -35 -17 -38 -9
-3 -11 1 -7 16 9 29 -2 32 -59 16 -65 -17 -110 -17 -124 0 -9 10 -7 15 6 20
10 3 36 17 58 30 22 14 47 28 55 31 36 15 45 23 48 44 2 11 6 22 10 22 4 1 17
3 29 4 13 1 28 7 35 12 25 20 58 25 58 9 0 -8 5 -18 10 -21 17 -11 41 16 38
41 -2 14 5 29 17 38 19 15 19 15 -7 16 -16 0 -28 4 -28 8 0 25 41 30 60 7z"/>
<path d="M4785 9666 c-5 -2 -29 -9 -51 -16 -50 -15 -62 -37 -56 -107 3 -44 7
-53 23 -53 11 0 27 -9 36 -20 26 -30 87 -26 150 10 53 31 54 33 76 127 7 32
-34 55 -107 59 -34 2 -65 2 -71 0z"/>
<path d="M5280 8430 c0 -11 -4 -20 -10 -20 -5 0 -10 -11 -10 -24 0 -25 -16
-43 -27 -32 -4 3 -7 24 -7 46 l0 39 -22 -20 c-13 -12 -26 -39 -29 -60 -4 -22
-15 -43 -25 -49 -9 -5 -20 -23 -23 -40 -8 -37 -35 -80 -52 -80 -6 0 -20 -9
-30 -20 -10 -11 -22 -17 -27 -14 -14 9 -76 -16 -82 -33 -10 -24 14 -44 48 -41
24 2 32 8 34 26 3 19 8 23 27 18 17 -4 24 -1 28 14 6 25 27 26 28 3 0 -14 2
-15 6 -3 2 8 7 22 10 30 4 8 7 19 7 24 2 21 26 16 27 -6 1 -16 4 -12 11 15 10
38 37 52 39 20 0 -14 3 -12 10 5 10 26 34 20 25 -7 -3 -9 2 -6 10 7 9 12 23
22 30 22 8 0 14 5 14 11 0 5 -4 7 -10 4 -5 -3 -10 2 -10 11 0 10 3 14 7 11 9
-9 34 13 27 24 -3 5 20 9 50 9 45 0 54 -3 50 -15 -7 -17 21 -21 31 -5 4 6 17
3 35 -10 16 -11 35 -17 44 -14 13 5 7 11 -21 27 -21 11 -45 28 -54 38 -9 11
-21 19 -26 19 -5 0 -22 14 -39 31 -26 27 -73 59 -89 59 -3 0 -5 -9 -5 -20z"/>
<path d="M4016 8191 c-4 -6 -2 -11 3 -11 17 0 13 -21 -6 -36 -13 -9 -22 -9
-30 -2 -15 12 -47 -8 -38 -23 3 -4 -9 -16 -27 -25 -17 -9 -38 -22 -45 -29 -13
-14 -49 -10 -59 6 -3 5 -14 9 -25 9 -11 0 -17 -4 -14 -10 3 -5 0 -10 -8 -10
-8 0 -18 -7 -21 -16 -9 -23 -7 -54 3 -54 5 0 12 -12 15 -26 11 -42 64 -84 108
-84 21 0 38 -5 38 -11 0 -5 5 -7 10 -4 6 4 8 10 5 15 -3 5 3 18 14 29 10 10
26 44 35 75 9 31 31 86 48 122 28 59 30 67 16 81 -11 10 -18 11 -22 4z"/>
<path d="M9350 7673 c-77 -63 -100 -86 -100 -99 0 -8 7 -14 15 -14 8 0 15 5
15 12 0 6 11 2 23 -10 46 -43 131 -48 217 -13 25 10 25 10 -6 10 -27 1 -32 6
-44 41 -7 22 -24 47 -36 55 -14 9 -21 21 -18 30 10 25 -29 18 -66 -12z"/>
<path d="M9135 7442 c-6 -4 -19 -24 -30 -45 -25 -47 -13 -70 41 -78 21 -3 46
-9 55 -13 25 -11 42 19 36 61 -9 55 -69 100 -102 75z"/>
<path d="M5710 5946 c0 -13 -5 -17 -20 -13 -11 3 -20 1 -20 -5 0 -5 -7 -2 -16
6 -20 20 -34 12 -27 -14 7 -26 22 -35 36 -21 15 15 50 14 65 -1 9 -9 15 -10
20 -2 5 8 15 8 30 3 13 -5 21 -13 17 -19 -3 -5 10 -8 32 -7 34 2 38 -1 46 -30
6 -18 13 -33 17 -33 4 0 4 -18 0 -40 -9 -47 -3 -54 26 -31 47 38 70 117 37
127 -10 3 -36 14 -58 24 -72 33 -95 40 -130 40 -22 0 -38 6 -44 18 -10 16 -10
16 -11 -2z"/>
<path d="M1704 3302 c-12 -9 -25 -27 -29 -39 -4 -16 -14 -23 -31 -23 -18 0
-24 -5 -24 -21 0 -22 18 -23 62 -4 12 5 28 -5 58 -37 l40 -43 45 47 c25 26 45
56 45 67 0 25 -13 27 -30 6 -17 -21 -42 -19 -63 5 -9 11 -23 20 -31 20 -8 0
-16 9 -18 20 -3 18 -4 18 -24 2z"/>
<path d="M77 2750 c7 -28 -22 -53 -52 -46 l-25 6 0 -89 c0 -70 3 -90 15 -95
19 -7 19 -26 0 -26 -8 0 -15 -9 -15 -20 0 -11 7 -20 15 -20 8 0 15 6 15 14 0
11 8 10 37 -5 54 -28 65 -25 58 14 -6 31 -5 33 39 46 38 11 46 17 46 37 0 23
-3 24 -50 19 -27 -2 -52 0 -55 5 -4 6 12 10 39 10 35 0 46 4 46 15 0 11 7 14
25 9 40 -10 115 5 122 24 8 21 39 52 53 52 5 0 10 13 10 29 0 40 -25 47 -62
16 -36 -30 -52 -31 -85 -5 -34 26 -49 25 -75 -5 -27 -31 -32 -31 -47 1 -10 23
-14 24 -28 13 -15 -12 -16 -12 -10 4 4 11 2 17 -7 17 -9 0 -12 -7 -9 -20z"/>
<path d="M1596 2683 c-25 -13 -27 -17 -15 -27 25 -19 41 -66 28 -82 -16 -20
-29 -17 -29 6 0 31 -18 23 -39 -17 -10 -21 -33 -46 -50 -56 l-31 -18 0 25 c0
13 6 26 12 28 7 3 -11 6 -41 7 -38 1 -59 -3 -72 -15 -23 -21 -14 -44 17 -44
21 0 24 -4 18 -25 -7 -30 13 -34 51 -9 13 8 46 16 73 17 32 2 55 8 67 21 17
17 20 17 30 2 7 -9 24 -16 39 -16 19 0 26 -5 26 -19 0 -11 -6 -22 -12 -24 -7
-3 -3 -6 9 -6 29 -1 53 9 53 23 0 6 9 17 19 23 16 10 20 9 25 -3 4 -12 10 -13
26 -4 20 11 28 50 10 50 -5 0 -10 -4 -10 -10 0 -5 -7 -10 -16 -10 -9 0 -14 6
-11 13 18 47 17 56 -2 62 -10 3 -22 12 -25 20 -3 8 -12 15 -20 15 -13 0 -13 3
0 28 21 41 18 52 -16 52 -16 0 -30 -4 -30 -10 0 -14 -21 -12 -39 4 -14 12 -20
12 -45 -1z"/>
<path d="M6985 1980 c-4 -11 -6 -37 -5 -58 1 -20 2 -67 1 -104 l-1 -68 -31 0
c-17 0 -28 -4 -24 -10 3 -5 15 -10 25 -10 14 0 19 -7 19 -27 -3 -173 11 -290
25 -222 4 18 14 337 16 482 0 9 8 17 18 18 14 0 14 2 -3 9 -30 13 -33 12 -40
-10z"/>
<path d="M6000 1740 c-14 -11 -30 -24 -37 -30 -7 -5 -16 -10 -21 -10 -16 0
-92 -77 -92 -93 0 -23 -32 -22 -77 3 -21 11 -45 20 -55 20 -10 0 -18 9 -20 22
-4 29 -38 37 -45 10 -6 -23 -53 -49 -53 -29 0 6 -5 4 -11 -5 -5 -10 -21 -18
-34 -18 -13 0 -31 -7 -39 -16 -11 -11 -25 -14 -46 -9 -28 6 -30 5 -30 -24 0
-24 4 -31 20 -31 11 0 20 -4 20 -8 0 -13 -48 -32 -64 -26 -8 3 -28 -2 -45 -10
-16 -9 -41 -16 -53 -16 -59 0 -277 -97 -327 -146 -19 -17 -6 -31 13 -15 8 7
21 9 27 5 8 -4 9 -3 5 4 -10 16 -1 15 36 -4 17 -9 40 -13 54 -10 23 6 24 7 10
41 -13 31 -13 35 0 35 7 0 14 -7 14 -15 0 -8 5 -15 10 -15 6 0 10 8 10 18 0
10 12 22 30 29 17 6 28 8 25 3 -9 -14 16 -23 28 -11 9 9 8 14 -3 21 -12 8 -9
10 12 10 20 0 30 -7 40 -27 8 -17 23 -29 38 -31 51 -8 69 -47 25 -58 -13 -3
-29 -12 -36 -20 -6 -8 -22 -14 -35 -14 -13 0 -24 -6 -24 -12 0 -7 -21 -21 -48
-31 -26 -10 -58 -23 -72 -29 l-25 -10 22 -11 c16 -7 27 -6 36 2 32 26 105 59
114 50 5 -5 21 2 37 16 68 58 88 20 51 -96 -14 -46 -23 -89 -20 -96 9 -24 -14
-53 -42 -53 -24 0 -25 -1 -11 -23 13 -19 13 -29 1 -77 -20 -73 -20 -85 -5 -85
7 0 21 24 31 53 10 28 16 52 13 52 -2 0 0 6 5 13 5 6 17 41 27 77 10 36 26 88
36 115 10 28 20 59 22 69 5 29 28 32 28 4 1 -23 1 -23 15 -3 8 11 19 25 24 32
7 8 3 13 -15 17 -13 4 -24 11 -24 16 0 14 24 12 39 -2 11 -11 12 -5 7 32 -4
28 -3 37 2 25 6 -13 19 -19 38 -20 24 0 28 -4 26 -22 -4 -30 34 -42 53 -16 8
10 15 23 15 30 0 7 7 16 16 21 13 7 7 11 -25 16 -30 5 -41 11 -41 24 0 32 -21
43 -39 22 -11 -13 -32 -20 -65 -22 -46 -3 -50 -1 -57 24 -4 17 -2 34 8 47 13
19 17 20 41 7 16 -8 35 -10 47 -6 11 4 23 6 26 4 4 -2 12 3 18 10 13 15 8 18
-56 31 -38 8 -51 22 -28 32 10 3 20 1 24 -4 3 -6 31 -13 62 -16 55 -6 75 -11
114 -27 11 -5 27 -10 35 -13 11 -3 6 -12 -18 -34 l-33 -30 92 4 c51 3 89 1 86
-4 -3 -5 -20 -10 -38 -11 -18 -1 -38 -7 -44 -12 -7 -6 -26 -7 -44 -4 -24 5
-31 3 -31 -10 0 -12 10 -16 44 -16 25 0 47 4 50 9 8 12 106 9 107 -3 1 -6 1
-17 0 -23 -1 -7 3 -13 9 -13 5 0 10 14 10 30 0 26 4 30 26 30 14 0 32 7 40 15
9 8 26 15 40 15 15 0 24 6 24 15 0 14 -11 19 -38 16 -6 -1 -19 2 -28 7 -13 7
-8 12 23 25 22 8 47 27 56 40 15 23 15 26 -13 52 -26 25 -34 27 -75 22 -27 -4
-45 -3 -45 3 0 6 3 10 8 10 4 1 20 11 36 24 27 23 28 26 17 55 -12 28 -11 32
19 61 17 16 28 35 25 40 -8 12 -5 13 -35 -10z"/>
<path d="M6462 1345 c1 -11 -3 -29 -9 -40 -6 -11 -9 -36 -8 -55 1 -19 -1 -39
-5 -45 -10 -12 -10 -24 -11 -180 0 -89 -4 -126 -15 -143 -12 -18 -12 -23 -2
-26 61 -19 77 -21 103 -16 l30 6 -38 8 c-21 4 -40 13 -43 21 -3 7 0 64 6 126
6 63 12 125 13 139 3 35 46 40 169 19 56 -10 144 -21 193 -25 50 -3 95 -10
100 -14 6 -4 48 -10 95 -13 47 -3 76 -3 65 0 -10 3 -30 12 -43 21 -14 9 -27
11 -30 6 -8 -11 -48 -12 -58 -1 -4 4 -18 7 -30 7 -13 0 -43 7 -68 15 -24 8
-76 17 -115 20 -39 2 -80 9 -91 15 -10 5 -26 7 -35 4 -9 -4 -21 -1 -25 6 -7
11 -40 18 -97 19 -19 1 -23 7 -23 35 0 23 7 38 23 49 22 16 22 16 1 16 -12 1
-29 11 -38 24 -15 21 -16 21 -14 2z"/>
<path d="M3800 1314 c-128 -58 -169 -80 -170 -91 0 -14 -30 -18 -30 -4 0 13
-52 0 -82 -21 -14 -10 -58 -25 -97 -34 -57 -13 -71 -20 -71 -35 0 -24 -17 -25
-24 -1 -6 17 -46 26 -46 10 0 -4 5 -8 10 -8 20 0 9 -29 -12 -32 -29 -4 -34
-24 -7 -31 28 -8 15 -27 -20 -27 -15 0 -31 -4 -37 -9 -5 -5 -22 -11 -38 -13
-41 -4 -44 -25 -4 -30 18 -3 40 -7 48 -9 10 -3 14 2 12 14 -2 9 2 17 8 17 6 0
18 7 26 15 8 8 22 19 32 24 13 8 14 12 3 25 -15 18 -8 21 19 6 14 -7 21 -6 27
3 4 8 30 17 57 21 27 3 57 13 66 21 9 8 21 15 27 15 6 0 34 11 61 25 28 14 64
25 81 25 19 0 34 7 40 19 6 10 28 26 49 34 21 9 46 26 54 39 13 20 22 23 52
20 31 -4 36 -1 36 17 0 26 -2 26 -70 -5z"/>
<path d="M10480 1313 c0 -6 7 -16 15 -23 8 -7 15 -19 15 -27 0 -8 9 -26 20
-40 11 -14 20 -33 20 -41 0 -9 16 -46 35 -83 42 -81 45 -103 13 -96 -13 3 -32
2 -43 -2 -16 -6 -12 -9 20 -15 48 -9 85 -41 85 -72 0 -15 23 -47 64 -89 36
-36 67 -65 70 -65 3 0 6 13 6 29 0 19 -13 43 -40 74 -22 25 -40 50 -40 56 0 6
-5 11 -10 11 -14 0 -50 61 -50 86 0 25 -34 93 -83 166 -11 16 -17 40 -15 60 3
37 -4 36 151 25 80 -6 87 -5 87 12 0 16 -11 19 -80 25 -44 3 -116 9 -160 12
-52 5 -80 3 -80 -3z"/>
<path d="M8067 993 c-5 -7 -21 -13 -36 -13 -24 0 -29 -5 -33 -30 -3 -18 0 -31
8 -34 10 -4 11 -19 7 -57 -6 -50 -6 -51 17 -44 19 6 22 4 17 -9 -8 -19 12
-177 23 -189 4 -4 19 -5 34 -1 24 6 25 8 10 19 -12 9 -17 25 -16 55 1 24 -3
49 -9 57 -7 8 -9 28 -6 50 4 20 2 42 -3 48 -17 20 -25 106 -11 115 7 4 11 16
9 26 -2 14 -6 15 -11 7z"/>
<path d="M3396 784 c-9 -22 -8 -24 9 -18 11 5 15 -1 15 -24 0 -23 12 -44 50
-84 28 -29 50 -57 50 -63 0 -5 18 -23 40 -39 22 -17 40 -33 40 -38 0 -4 9 -8
19 -8 14 0 22 -10 26 -32 8 -35 -6 -51 -57 -70 -16 -5 -28 -16 -28 -24 0 -19
7 -18 58 12 48 28 126 35 188 16 33 -10 61 -1 50 16 -3 6 -24 13 -46 17 -22 4
-40 10 -40 14 0 5 -11 6 -24 4 -21 -4 -30 3 -56 45 -18 30 -36 49 -44 46 -19
-7 -66 14 -66 30 0 8 6 17 13 19 12 5 -67 87 -84 87 -5 0 -18 18 -29 39 -18
36 -53 71 -71 71 -4 0 -10 -7 -13 -16z"/>
<path d="M9670 743 c0 -10 13 -45 29 -78 16 -33 41 -98 57 -144 22 -67 25 -87
16 -102 -10 -15 -8 -23 7 -38 27 -27 48 -69 56 -114 4 -20 11 -37 16 -37 12 0
11 27 -1 35 -6 4 -5 13 2 24 9 15 7 32 -11 82 -13 35 -38 109 -57 164 -19 55
-39 109 -44 120 -6 11 -16 38 -23 60 -15 42 -47 61 -47 28z"/>
<path d="M10231 736 c-16 -29 -8 -67 26 -124 16 -26 37 -72 47 -102 10 -30 26
-73 36 -95 29 -62 46 -104 75 -180 44 -120 68 -165 89 -165 13 0 17 -5 13 -17
-13 -47 -12 -48 22 -51 34 -3 34 -3 28 33 -3 21 -14 49 -24 62 -10 14 -21 31
-24 37 -28 51 -38 76 -41 106 -1 19 -7 38 -13 42 -7 5 -6 14 3 28 17 28 15 37
-12 44 -16 4 -25 15 -30 38 -3 17 -17 45 -30 62 -36 47 -92 167 -99 209 -3 21
-17 51 -30 67 l-24 28 -12 -22z"/>
<path d="M4690 637 c0 -8 -7 -20 -15 -27 -8 -7 -15 -21 -15 -31 0 -10 -9 -33
-20 -52 -11 -19 -18 -41 -15 -49 4 -9 -1 -18 -10 -22 -12 -4 -15 -13 -10 -35
5 -23 1 -31 -20 -45 -25 -17 -26 -19 -10 -36 17 -19 17 -64 -1 -120 -6 -22 -6
-23 8 -12 9 7 19 33 23 57 5 35 10 45 25 45 28 0 34 17 10 30 -21 11 -28 46
-10 52 5 2 11 17 12 33 1 17 14 48 29 70 35 53 54 144 32 152 -7 3 -13 -2 -13
-10z"/>
<path d="M6195 530 c-14 -22 18 -42 57 -37 21 3 54 1 73 -4 l35 -10 -5 -97
c-3 -53 -7 -116 -8 -140 -2 -24 -9 -47 -17 -52 -11 -7 -11 -14 -3 -32 9 -19 7
-29 -6 -46 -15 -19 -20 -20 -63 -10 -27 6 -51 8 -55 4 -12 -12 28 -36 60 -36
43 0 67 -17 67 -48 1 -23 2 -25 11 -9 5 9 8 21 4 26 -3 5 0 13 6 16 5 4 9 24
8 46 -2 21 0 41 4 45 11 11 8 42 -4 46 -8 3 -7 8 3 18 8 8 15 35 17 59 1 25 4
48 7 53 3 5 7 31 10 59 3 29 9 60 14 70 18 32 12 42 -20 36 -27 -6 -30 -4 -30
18 0 27 -18 32 -51 15 -14 -8 -27 -7 -48 5 -35 18 -57 19 -66 5z"/>
<path d="M6949 503 c-1 -16 -1 -32 0 -36 1 -4 -3 -17 -9 -27 -9 -17 -18 -19
-58 -14 -26 3 -64 13 -85 21 -29 13 -40 14 -49 5 -21 -21 8 -36 89 -43 96 -10
106 -20 101 -106 -3 -55 -2 -63 14 -63 10 0 19 3 19 8 1 4 4 18 6 32 3 14 5
37 5 53 1 15 5 27 10 27 5 0 4 8 -1 19 -6 10 -13 48 -17 85 -7 66 -23 91 -25
39z"/>
<path d="M9200 472 c0 -10 3 -22 7 -26 10 -9 41 -132 58 -228 7 -42 16 -86 20
-99 7 -21 5 -22 -36 -15 -24 4 -48 11 -54 15 -5 5 -66 12 -135 15 -185 11
-219 15 -239 25 -10 6 -47 9 -83 8 l-64 -2 23 -34 c23 -34 27 -51 23 -103 -1
-22 3 -28 18 -28 19 0 19 2 4 54 -14 51 -14 54 5 73 17 17 22 18 38 6 11 -7
36 -13 58 -13 21 0 67 -7 101 -16 33 -9 102 -20 151 -24 50 -5 118 -14 152
-21 52 -10 62 -15 67 -35 7 -25 46 -35 45 -11 -2 65 -60 288 -80 310 -18 19
-29 61 -29 107 0 36 7 41 39 28 14 -6 51 -12 81 -14 30 -2 101 -11 158 -20 56
-9 105 -14 108 -11 22 21 -78 46 -210 53 -44 2 -84 8 -90 14 -5 5 -38 10 -73
10 -54 0 -63 -2 -63 -18z"/>
<path d="M1877 293 c-7 -36 11 -93 36 -114 l22 -18 -22 -1 c-32 0 -38 -18 -11
-39 16 -13 27 -16 35 -9 19 16 33 0 27 -31 -5 -24 0 -33 28 -55 19 -14 47 -26
63 -26 l27 0 -34 43 c-44 53 -63 88 -60 108 2 9 -10 36 -26 60 -16 24 -32 53
-36 64 -3 11 -14 25 -25 32 -16 10 -20 9 -24 -14z"/>
<path d="M6080 198 c-65 -76 -185 -104 -314 -74 -38 9 -70 15 -71 14 -2 -2 4
-31 12 -66 12 -46 19 -60 28 -52 6 5 15 7 18 4 4 -4 11 5 17 20 9 26 13 27 55
20 25 -3 51 -2 58 3 6 5 27 10 45 11 18 1 58 9 89 17 32 8 68 15 80 15 16 0
23 6 23 20 0 12 -7 20 -16 20 -14 0 -13 5 5 36 39 66 23 72 -29 12z"/>
</g>
</svg>
